<?xml version="1.0" encoding="utf-8"?>
<!-- Generator: Adobe Illustrator 26.4.0, SVG Export Plug-In . SVG Version: 6.00 Build 0)  -->
<svg version="1.1" id="Layer_1" xmlns="http://www.w3.org/2000/svg" xmlns:xlink="http://www.w3.org/1999/xlink" x="0px" y="0px"
	 viewBox="0 0 431.1 112.1" style="enable-background:new 0 0 431.1 112.1;" xml:space="preserve">
<style type="text/css">
	.st0{fill:#FFFFFF;}
</style>
<g>
	<g>
		<path class="st0" d="M45.4,25.7c0.9-0.2,1.8-0.7,2.2-0.9c0.1-0.1,0.5-0.3,0.3-0.4c-0.5-0.1-3.1,0.9-2.8,1.3
			C45.1,25.7,45.3,25.7,45.4,25.7"/>
		<g>
			<path class="st0" d="M50.5,48c-1.2,1.2-0.4,3.5,1.7,3.5c1.6-0.1,2.2-1.5,2.1-2.3C54.1,47.4,51.8,46.7,50.5,48"/>
			<path class="st0" d="M57.8,48c-1.1,1.2-0.4,3.3,1.6,3.4c1.7,0,2.3-1.3,2.3-2.2C61.6,47.4,59.1,46.6,57.8,48"/>
			<path class="st0" d="M65.4,48.2c-1.3,1.1-0.8,3.4,1.2,3.7c1.6,0.1,2.4-1.2,2.4-2.1C69,48.1,66.7,47.1,65.4,48.2"/>
			<path class="st0" d="M43.4,41.6c-1.2,1.3-0.6,3.4,1.4,3.4c1.6-0.2,2.2-1.6,2.1-2.5C46.8,40.8,44.6,40.3,43.4,41.6"/>
			<path class="st0" d="M52,44.5c1.7-0.1,2.3-1.4,2.2-2.3c-0.2-1.8-2.7-2.4-3.9-1C49.2,42.5,50,44.5,52,44.5"/>
			<path class="st0" d="M57.8,41.1c-1.1,1.2-0.3,3.2,1.8,3.4c1.7,0,2.4-1.3,2.2-2.2C61.6,40.5,59.1,39.7,57.8,41.1"/>
			<path class="st0" d="M65.3,41.4c-1.1,1.1-0.3,3.2,1.8,3.5c1.7,0.1,2.3-1.2,2.2-2.1C69,41.1,66.5,40.2,65.3,41.4"/>
			<path class="st0" d="M72.5,42.2c-0.9,1-0.2,3.2,1.6,3.6c1.4,0.2,1.9-1,1.8-1.9C75.6,42.1,73.5,41,72.5,42.2"/>
			<path class="st0" d="M33.4,37.1c-1.5,1-2,3.2-0.8,3.3c0.2,0,0.3,0,0.4,0c1.2-0.4,1.9-1.6,2-2.4C35.2,36.8,34.4,36.4,33.4,37.1"/>
			<path class="st0" d="M38.3,36.1c-1.4,1-1.6,2.9-0.2,3.1c0.2,0,0.4,0,0.5,0c1.4-0.3,2.1-1.5,2.2-2.3
				C40.9,35.6,39.5,35.2,38.3,36.1"/>
			<path class="st0" d="M44,35.5c-1.3,1.1-0.9,2.9,0.8,2.9c0.1,0,0.1,0,0.2,0c1.6-0.2,2.3-1.4,2.2-2.2C47.3,34.8,45.4,34.3,44,35.5"
				/>
			<path class="st0" d="M50.5,35.2c-0.9,1-0.4,2.7,1.6,2.7c1.7-0.1,2.3-1.3,2.2-2C54.1,34.3,51.7,33.9,50.5,35.2"/>
			<path class="st0" d="M59.5,37.9c1.7,0,2.2-1.1,2.1-1.9c-0.3-1.6-2.9-2.2-4-0.9C56.8,36,57.4,37.7,59.5,37.9"/>
			<path class="st0" d="M66.8,38.3c1.7,0.1,2.1-1,1.9-1.8c-0.5-1.6-3-2.3-4-1.1C64,36.3,64.8,38,66.8,38.3"/>
			<path class="st0" d="M75,37.5c-0.6-1.6-2.8-2.5-3.5-1.4c-0.6,0.9,0.5,2.7,2.1,3C75,39.4,75.2,38.3,75,37.5"/>
			<path class="st0" d="M77.2,37.2c-0.4,0.9,0.6,2.8,1.9,3.3c1.1,0.2,1.1-0.8,0.8-1.6C79.4,37.2,77.7,36.2,77.2,37.2"/>
			<path class="st0" d="M83.5,40.4c-0.6-1.5-1.7-2.6-2-2c-0.3,0.7,0.7,3,1.7,3.5C84,42.2,83.9,41.2,83.5,40.4"/>
			<path class="st0" d="M33.1,32.9c-0.9,0.2-3.1,3-2.5,3.2c0.1,0,0.2,0,0.3-0.1c0.8-0.4,1.7-1.6,2.1-2.2
				C33.4,33.2,33.4,32.8,33.1,32.9"/>
			<path class="st0" d="M36.5,31.7c-1.5,0.5-3,2.7-2.1,3c0.2,0,0.3,0,0.5,0c1.1-0.4,2-1.4,2.3-2C37.5,31.8,37.2,31.4,36.5,31.7"/>
			<path class="st0" d="M40.5,30.9c-1.5,0.8-2.1,2.3-1.1,2.6c0.2,0.1,0.4,0,0.6,0c1.3-0.3,2.1-1.3,2.3-1.9
				C42.6,30.6,41.7,30.3,40.5,30.9"/>
			<path class="st0" d="M45.3,30.5c-1.1,0.9-1,2.1,0.3,2.2c0.1,0,0.3,0,0.4,0c1.4-0.2,2.2-1.1,2.2-1.8
				C48.3,29.8,46.5,29.5,45.3,30.5"/>
			<path class="st0" d="M51,30.3c-0.7,0.8-0.3,2,1.4,2c1.5-0.1,2.1-1,2.1-1.6C54.3,29.4,52,29.1,51,30.3"/>
			<path class="st0" d="M59.1,32.3c1.5,0,2-0.9,1.8-1.5c-0.4-1.3-2.8-1.8-3.7-0.6C56.7,30.9,57.3,32.2,59.1,32.3"/>
			<path class="st0" d="M67.3,31.3c-0.7-1.3-3.1-1.9-3.7-0.8c-0.4,0.7,0.5,2,2.2,2.3C67.3,32.8,67.6,31.9,67.3,31.3"/>
			<path class="st0" d="M73,32.2c-0.8-1.3-2.9-2.1-3.3-1.2c-0.3,0.8,0.9,2.2,2.4,2.5C73.4,33.7,73.4,32.8,73,32.2"/>
			<path class="st0" d="M77.2,34.6c0.9,0.2,0.7-0.6,0.4-1.2c0,0-0.1-0.1-0.1-0.2c-0.9-1.2-2.4-2.1-2.7-1.5
				C74.6,32.4,75.8,34.2,77.2,34.6"/>
			<path class="st0" d="M80.6,34.7c-0.8-1.1-2-2.1-2.1-1.7c-0.1,0.4,1.3,2.5,2.4,3.1c0.5,0.2,0.4-0.2,0.2-0.5
				C81.1,35.4,80.9,35.1,80.6,34.7"/>
			<path class="st0" d="M38,29.9c0.9-0.3,1.9-1.1,2.4-1.6c0.4-0.5,0.5-0.7,0.2-0.7c-1,0.1-3.4,2-2.9,2.3C37.7,30,37.9,29.9,38,29.9"
				/>
			<path class="st0" d="M41.8,28.9c0.2,0.1,0.4,0,0.6,0c1.1-0.2,2-1,2.3-1.4c0.4-0.5,0.1-0.8-0.6-0.7C42.6,27.2,41,28.6,41.8,28.9"
				/>
			<path class="st0" d="M47.3,26.6c-1.1,0.6-1.4,1.4-0.5,1.6c0.2,0.1,0.4,0,0.6,0c1.2-0.2,1.9-0.9,2.1-1.3
				C49.7,26.2,48.5,26,47.3,26.6"/>
			<path class="st0" d="M51.7,26.6c-0.5,0.6-0.3,1.4,1.2,1.4c1.3-0.1,1.8-0.7,1.8-1.2C54.6,25.8,52.6,25.7,51.7,26.6"/>
			<path class="st0" d="M58.6,27.9c1.2,0,1.6-0.6,1.4-1.1c-0.5-1-2.7-1.2-3.1-0.3C56.7,27.1,57.2,27.8,58.6,27.9"/>
			<path class="st0" d="M65.3,27.2c-0.7-0.9-3-1.4-3.1-0.6c-0.1,0.5,0.7,1.4,2.2,1.6C65.5,28.3,65.7,27.8,65.3,27.2"/>
			<path class="st0" d="M69.7,29c1,0.1,0.8-0.4,0.5-0.8C70.1,28.1,70.1,28,70,28c-0.9-0.9-2.8-1.6-2.8-0.9
				C67.1,27.6,68.3,28.7,69.7,29"/>
			<path class="st0" d="M74,29.9c0.6,0.2,0.4-0.1,0.3-0.3c-0.1-0.1-0.3-0.3-0.6-0.6c-1-0.9-2.4-1.5-2.5-1.2
				C71.2,28.1,72.8,29.5,74,29.9"/>
			<path class="st0" d="M49.3,25.2c0.9-0.1,1.6-0.5,1.8-0.8s0-0.4-0.7-0.3c-1.2,0.2-2.2,0.8-1.7,1.1C48.9,25.2,49.2,25.2,49.3,25.2"
				/>
			<path class="st0" d="M52.7,24.2c-0.3,0.3-0.2,0.7,0.8,0.7c1-0.1,1.4-0.5,1.4-0.7C55,23.7,53.3,23.7,52.7,24.2"/>
			<path class="st0" d="M58.9,24.3c-0.5-0.6-2.3-0.6-2.3-0.1c0,0.3,0.4,0.6,1.4,0.7C58.9,24.9,59.1,24.5,58.9,24.3"/>
			<path class="st0" d="M62.4,25.2c0.9,0.1,0.8-0.2,0.6-0.4c0-0.1-0.1-0.1-0.2-0.2c-0.8-0.5-2.5-0.8-2.4-0.4
				C60.5,24.5,61.3,25,62.4,25.2"/>
			<path class="st0" d="M66.5,25.7c0.5,0.1,0.5-0.1,0.4-0.2c0-0.1-0.2-0.2-0.6-0.4c-0.8-0.4-2.4-0.9-2.3-0.6
				C64,24.7,65.3,25.5,66.5,25.7"/>
		</g>
	</g>
	<g>
		<path class="st0" d="M62.8,58.3c1.6,0.7,3.4-0.9,2.9-2.7c-0.5-1.7-2.8-2.1-3.9-0.3C61.1,56.8,62,58,62.8,58.3"/>
		<path class="st0" d="M59,64.7c1.7,0.8,3.6-0.9,3-2.8c-0.5-1.6-2.6-2-3.8-0.3C57.4,63.1,58.2,64.3,59,64.7"/>
		<path class="st0" d="M54.9,70.7c1.5,0.9,3.5-0.6,3.2-2.3c-0.3-1.7-2.5-2.4-3.8-0.8C53.4,69,54.1,70.3,54.9,70.7"/>
		<path class="st0" d="M72.2,55.2c1.5,0.7,3-0.9,2.5-2.6s-2.7-2.3-3.6-0.4C70.6,53.7,71.4,54.9,72.2,55.2"/>
		<path class="st0" d="M68.8,61.8c1.6,0.7,3.4-1.1,2.8-2.9c-0.5-1.6-2.6-2-3.7-0.2C67.2,60.2,68,61.4,68.8,61.8"/>
		<path class="st0" d="M64.2,65.2c-0.8,1.5,0,2.7,0.8,3c1.7,0.7,3.6-1.1,3-2.9C67.5,63.8,65.4,63.5,64.2,65.2"/>
		<path class="st0" d="M60.7,74.4c1.7,0.7,3.7-1,3.2-2.7c-0.4-1.5-2.6-1.9-3.9-0.2C59.1,72.9,59.9,74.1,60.7,74.4"/>
		<path class="st0" d="M55.8,77.1c-0.9,1.2-0.1,2.2,0.8,2.6c1.7,0.7,3.6-0.6,3.1-2.1C59.2,76.2,57,75.7,55.8,77.1"/>
		<path class="st0" d="M82.1,47.2c0.9,0.8,1.7,0.3,1.6-1c-0.1-1.8-1.8-3.3-2.5-2.4c-0.1,0.1-0.1,0.3-0.2,0.4
			C80.8,45.4,81.5,46.6,82.1,47.2"/>
		<path class="st0" d="M80.1,52.7c1.1,0.7,2.1-0.2,1.9-1.7c-0.2-1.8-1.7-2.8-2.6-1.7c-0.1,0.2-0.2,0.3-0.3,0.5
			C78.8,51,79.5,52.2,80.1,52.7"/>
		<path class="st0" d="M77.5,58.7c1.2,0.7,2.6-0.7,2.2-2.5c-0.3-1.7-2.1-2.2-2.9-0.8c0,0.1-0.1,0.1-0.1,0.2
			C76.2,57.2,76.8,58.3,77.5,58.7"/>
		<path class="st0" d="M73.6,62c-0.7,1.5-0.1,2.6,0.6,2.9c1.5,0.6,3.1-1.3,2.5-3C76.3,60.7,74.6,60.3,73.6,62"/>
		<path class="st0" d="M70.5,71.2c1.6,0.5,3.3-1.4,2.8-3c-0.4-1.2-2.2-1.5-3.4,0.3C69.1,69.9,69.8,70.9,70.5,71.2"/>
		<path class="st0" d="M66.5,77c1.6,0.4,3.6-1.5,3-2.9c-0.4-1-2.3-1.2-3.6,0.4C65,75.9,65.7,76.8,66.5,77"/>
		<path class="st0" d="M62.5,82.1c1.7,0.3,3.6-1.2,2.9-2.3c-0.5-0.9-2.5-0.9-3.7,0.3C60.9,81.2,61.7,81.9,62.5,82.1"/>
		<path class="st0" d="M61.7,84.2c-0.5-0.8-2.7-0.9-3.8,0c-0.8,0.8,0.1,1.4,1,1.5C60.5,86,62.3,85.1,61.7,84.2"/>
		<path class="st0" d="M54.5,87c-0.6,0.5,0.4,0.9,1.2,1.1c1.5,0.2,3.1-0.2,2.7-0.7C58,86.7,55.6,86.4,54.5,87"/>
		<path class="st0" d="M87.4,48.1c0.3-0.9-1-4.2-1.5-3.8c-0.1,0.1-0.1,0.2-0.1,0.3c0,0.9,0.5,2.3,0.8,2.9
			C87,48.1,87.3,48.4,87.4,48.1"/>
		<path class="st0" d="M86.8,51.6c0.3-1.6-0.8-3.9-1.5-3.3c-0.1,0.1-0.2,0.3-0.2,0.4c-0.2,1.1,0.3,2.4,0.6,3
			C86.2,52.4,86.7,52.4,86.8,51.6"/>
		<path class="st0" d="M83.9,56.7c0.7,0.7,1.5,0.1,1.5-1.2c0.1-1.7-0.9-3-1.7-2.2c-0.2,0.2-0.2,0.3-0.3,0.5
			C83.1,55,83.5,56.2,83.9,56.7"/>
		<path class="st0" d="M81.6,62.1c1,0.7,2.1-0.7,1.8-2.3c-0.2-1.4-1.3-1.9-2.1-0.8c-0.1,0.1-0.1,0.2-0.2,0.3
			C80.6,60.6,81.1,61.7,81.6,62.1"/>
		<path class="st0" d="M80.7,64.9c-0.3-1-1.6-1.3-2.5,0.2c-0.7,1.4-0.2,2.3,0.4,2.6C79.9,68.2,81.2,66.4,80.7,64.9"/>
		<path class="st0" d="M74.9,70.9c-0.8,1.3-0.2,2.2,0.4,2.3c1.4,0.3,2.9-1.6,2.4-2.9C77.3,69.5,75.9,69.4,74.9,70.9"/>
		<path class="st0" d="M71.7,78.5c1.5,0.1,3.2-1.8,2.6-2.8c-0.4-0.7-2-0.6-3.1,0.8C70.4,77.8,71,78.5,71.7,78.5"/>
		<path class="st0" d="M70.8,80.7c-0.5-0.6-2.3-0.3-3.4,0.8c-0.8,1,0,1.4,0.7,1.4C69.7,83,71.4,81.5,70.8,80.7"/>
		<path class="st0" d="M63.9,85.4c-0.7,0.7,0.1,0.9,0.8,0.9c0.1,0,0.1,0,0.2,0c1.5-0.1,3-1.1,2.6-1.6C67.1,84.3,65,84.4,63.9,85.4"
			/>
		<path class="st0" d="M60.8,88c-0.4,0.3,0,0.4,0.3,0.4c0.2,0,0.5,0,1,0c1.4-0.2,2.8-0.7,2.6-1C64.4,87.1,61.8,87.4,60.8,88"/>
		<path class="st0" d="M87.8,53.4c-0.1,0.1-0.2,0.2-0.2,0.4c-0.2,1,0,2.2,0.2,2.9c0.2,0.6,0.4,0.8,0.5,0.5
			C88.7,56.2,88.3,53.2,87.8,53.4"/>
		<path class="st0" d="M86.5,57.6c-0.2,0.1-0.2,0.3-0.3,0.5c-0.4,1.1-0.1,2.2,0.1,2.7c0.3,0.6,0.7,0.5,0.9-0.2
			C87.6,59.1,87.2,57.1,86.5,57.6"/>
		<path class="st0" d="M84.6,62.3c-0.1,0.2-0.2,0.3-0.3,0.5c-0.5,1.1-0.2,2.1,0.1,2.5c0.6,0.6,1.3-0.3,1.4-1.7
			C85.8,62.3,85.2,61.6,84.6,62.3"/>
		<path class="st0" d="M81.8,67.7c-0.6,1.2-0.3,2,0.1,2.1c0.9,0.4,2-1.3,1.6-2.5C83.4,66.7,82.5,66.5,81.8,67.7"/>
		<path class="st0" d="M79.2,74.4c1.1,0.1,2.4-1.8,1.8-2.6c-0.3-0.5-1.3-0.4-2.1,0.8C78.4,73.7,78.6,74.4,79.2,74.4"/>
		<path class="st0" d="M78.3,76.4c-0.4-0.3-1.6-0.1-2.5,1.1c-0.6,1-0.3,1.4,0.4,1.3C77.4,78.6,78.9,77,78.3,76.4"/>
		<path class="st0" d="M72.5,81.7c-0.6,0.8,0,0.9,0.4,0.8c0.1,0,0.2,0,0.3-0.1c1.2-0.4,2.7-1.6,2.2-2C75,80.2,73.5,80.7,72.5,81.7"
			/>
		<path class="st0" d="M69.5,85c-0.4,0.4-0.1,0.5,0.1,0.5c0.1,0,0.4-0.1,0.9-0.2c1.2-0.4,2.6-1.3,2.3-1.6
			C72.5,83.5,70.5,84.2,69.5,85"/>
		<path class="st0" d="M87.7,62c-0.1,0-0.2,0.2-0.2,0.3c-0.3,0.8-0.3,1.9-0.3,2.3c0,0.2,0.1,0.6,0.2,0.4
			C87.7,64.7,88.2,61.9,87.7,62"/>
		<path class="st0" d="M86.3,65.5C86.1,65.6,86,65.8,86,66c-0.4,0.8-0.3,1.7-0.2,2c0.1,0.4,0.4,0.2,0.6-0.4
			C86.8,66.4,86.8,65.2,86.3,65.5"/>
		<path class="st0" d="M84.1,69.8c-0.4,0.9-0.3,1.5-0.1,1.6c0.5,0.3,1.3-1.2,1.1-2C85,69,84.6,68.9,84.1,69.8"/>
		<path class="st0" d="M81.9,73.6c-0.5,0.9-0.3,1.2,0.1,1.2c0.8-0.2,1.7-1.7,1.2-2C83,72.6,82.4,72.8,81.9,73.6"/>
		<path class="st0" d="M79.5,77.3c-0.5,0.7-0.2,0.8,0,0.7c0.1,0,0.2-0.1,0.3-0.1c0.8-0.4,1.9-1.7,1.5-1.9C81,76,80.1,76.5,79.5,77.3
			"/>
		<path class="st0" d="M77,80.6C76.7,81,76.8,81,76.9,81s0.3-0.1,0.7-0.3c0.8-0.5,1.9-1.6,1.7-1.7C79.1,78.9,77.7,79.7,77,80.6"/>
	</g>
	<g>
		<path class="st0" d="M45.2,51.9c1.5-0.2,2-1.6,1.8-2.5c-0.3-1.7-2.5-2.3-3.6-0.9C42.4,49.8,43.3,52,45.2,51.9"/>
		<path class="st0" d="M51.6,65c1.7,0.4,3.2-1.4,2.2-3.2c-0.9-1.3-2.4-1.2-3.1-0.7C49.3,62.2,49.8,64.6,51.6,65"/>
		<path class="st0" d="M48,58.7c1.6,0.3,3.1-1.3,2.2-3.1c-0.9-1.4-2.3-1.4-3.1-0.9C45.5,55.7,46.1,58.3,48,58.7"/>
		<path class="st0" d="M51.8,71.5c-1-1.3-2.5-1.1-3.2-0.6c-1.4,1-0.8,3.1,1,3.5C51.4,74.8,52.9,73.2,51.8,71.5"/>
		<path class="st0" d="M45.8,68.6c1.6,0.3,3-1.3,2-3.1c-1-1.4-2.4-1.3-3.1-0.8C43.2,65.7,44,68.2,45.8,68.6"/>
		<path class="st0" d="M42,62.1c1.6,0.4,3-1.3,2-3.2c-0.9-1.5-2.3-1.4-3-0.8C39.6,59.2,40.2,61.7,42,62.1"/>
		<path class="st0" d="M38.5,55.5c1.5,0.4,2.9-1.4,2.2-3.3c-0.8-1.5-2.1-1.4-2.9-0.9C36.4,52.4,36.8,55.1,38.5,55.5"/>
		<path class="st0" d="M35.6,48.8c1.4,0.3,2.9-1.4,2.3-3.2c-0.6-1.3-1.9-1.2-2.6-0.6C33.9,46.2,34.1,48.5,35.6,48.8"/>
		<path class="st0" d="M53.8,84c-0.9-0.8-2.4-0.8-3.1-0.5c-1.1,0.4-1.1,1.3,0,1.8c1.6,0.8,3.8,0.2,3.3-1C54,84.2,53.9,84.1,53.8,84"
			/>
		<path class="st0" d="M47.4,81.6c1.6,0.7,3.3-0.1,2.8-1.3c-0.1-0.2-0.2-0.3-0.3-0.5c-1-1.1-2.4-1.1-3.1-0.7
			C45.7,79.6,46,80.9,47.4,81.6"/>
		<path class="st0" d="M44,76.9c1.7,0.6,2.9-0.7,2.1-2.1c0-0.1-0.1-0.1-0.1-0.2c-1-1.2-2.3-1.3-3-0.9C41.8,74.4,42.4,76.3,44,76.9"
			/>
		<path class="st0" d="M42.1,68.7c-0.9-1.4-2.2-1.4-2.8-0.9c-1.3,0.9-0.4,3.3,1.3,3.7C41.9,71.7,43.1,70.4,42.1,68.7"/>
		<path class="st0" d="M38.4,62.3c-0.9-1.5-2.1-1.4-2.7-0.9c-1.2,1.1-0.4,3.6,1.2,3.9C38.1,65.6,39.3,64.2,38.4,62.3"/>
		<path class="st0" d="M33.6,59c1.1,0.1,2.2-1.4,1.5-3.3c-0.8-1.5-1.9-1.3-2.4-0.7C31.5,56.2,32.1,58.8,33.6,59"/>
		<path class="st0" d="M30.9,52.7c1.1,0,2.1-1.7,1.6-3.4c-0.5-1.3-1.6-1-2.1-0.4C29.2,50.3,29.5,52.7,30.9,52.7"/>
		<path class="st0" d="M28.9,44c-1.1,1.3-1.1,3.3,0,3.2c1-0.1,2.1-1.9,1.9-3.3C30.4,42.9,29.5,43.3,28.9,44"/>
		<path class="st0" d="M27.8,42.9c0.7-0.1,2.2-2.1,2.2-3.3c-0.1-0.8-1-0.2-1.5,0.5C27.5,41.4,27.1,42.9,27.8,42.9"/>
		<path class="st0" d="M51,88c-0.8-0.5-2.2-0.7-2.9-0.7s-1.1,0.1-0.9,0.4c0.6,0.7,4.1,1.2,4,0.6C51.2,88.2,51.1,88.1,51,88"/>
		<path class="st0" d="M48.1,85.6c0-0.2-0.1-0.3-0.3-0.4c-0.9-0.8-2.2-1-2.9-0.9c-0.9,0.1-1,0.5-0.4,1
			C45.7,86.4,48.3,86.6,48.1,85.6"/>
		<path class="st0" d="M44.6,81.9c-0.1-0.2-0.2-0.4-0.3-0.5c-0.9-1-2.2-1.2-2.8-1.1c-1,0.2-0.8,1.2,0.3,1.9
			C43.3,83.2,44.9,82.9,44.6,81.9"/>
		<path class="st0" d="M39.1,78.3c1.3,0.5,2.3-0.2,1.7-1.4c0-0.1-0.1-0.2-0.2-0.3c-0.9-1.1-2.1-1.3-2.6-1.1
			C37,76,37.6,77.7,39.1,78.3"/>
		<path class="st0" d="M34.7,70.2c-1.1,0.8-0.1,2.9,1.4,3.2c1,0.2,1.9-0.7,1-2.3C36.2,69.9,35.2,69.9,34.7,70.2"/>
		<path class="st0" d="M33.7,65.4c-0.8-1.3-1.8-1.3-2.2-0.8c-1,1-0.1,3.3,1.3,3.5C33.8,68.2,34.5,67,33.7,65.4"/>
		<path class="st0" d="M28.8,58.8c-0.8,1.2-0.1,3.7,1.1,3.6c0.8,0,1.5-1.4,0.8-3.1C30,58,29.2,58.2,28.8,58.8"/>
		<path class="st0" d="M27.3,56.8c0.8-0.1,1.4-1.9,1-3.3c-0.5-1.2-1.2-0.8-1.6-0.1C26,54.8,26.4,57,27.3,56.8"/>
		<path class="st0" d="M25.5,48.8c0,0-0.1,0.1-0.1,0.2c-0.6,1.4-0.6,3.2,0,3.1c0.6-0.1,1.5-2.1,1.2-3.5
			C26.4,47.6,25.8,48.2,25.5,48.8"/>
		<path class="st0" d="M24.6,48.2c0.4-0.1,1.5-2.4,1.5-3.6c-0.1-0.5-0.4-0.2-0.5,0c-0.2,0.2-0.4,0.4-0.6,0.9
			C24.5,46.8,24.2,48.3,24.6,48.2"/>
		<path class="st0" d="M39.6,83.7c-0.6-0.1-0.9-0.1-0.7,0.2c0.6,0.8,3.4,2,3.5,1.4c0-0.1-0.1-0.3-0.2-0.4
			C41.5,84.3,40.3,83.8,39.6,83.7"/>
		<path class="st0" d="M39.5,82.1c0-0.2-0.2-0.4-0.3-0.5c-0.8-0.9-1.9-1.2-2.4-1.3c-0.6,0-0.8,0.3-0.2,0.9
			C37.6,82.3,39.6,82.9,39.5,82.1"/>
		<path class="st0" d="M36.4,78.1c-0.1-0.2-0.2-0.4-0.3-0.5c-0.7-1-1.7-1.3-2.2-1.2c-0.8,0.2-0.4,1.3,0.8,2
			C35.7,79.1,36.6,78.9,36.4,78.1"/>
		<path class="st0" d="M32.5,74.6c0.7,0.2,1.3-0.4,0.6-1.7c-0.7-1.1-1.6-1.2-1.9-0.9C30.4,72.6,31.3,74.4,32.5,74.6"/>
		<path class="st0" d="M28.5,67.3c-0.6,0.9,0.3,3,1.3,2.9c0.6-0.1,0.9-0.9,0.3-2.2C29.6,67,28.9,66.9,28.5,67.3"/>
		<path class="st0" d="M27.4,65.6c0.5-0.2,0.9-1.3,0.3-2.7c-0.5-1-1.1-1-1.4-0.3C25.9,63.7,26.5,65.9,27.4,65.6"/>
		<path class="st0" d="M25.6,57.9c-0.4-1-0.8-0.5-0.9-0.1c0,0.1-0.1,0.2-0.1,0.3c-0.3,1.2,0.1,3.2,0.7,2.9
			C25.7,60.8,26,59.2,25.6,57.9"/>
		<path class="st0" d="M24.2,53.7c-0.2-0.6-0.4-0.3-0.5-0.1c-0.1,0.1-0.2,0.4-0.2,0.9c-0.2,1.3-0.1,2.9,0.2,2.8
			C24.1,57,24.5,54.9,24.2,53.7"/>
		<path class="st0" d="M33,79.2c-0.2-0.1-0.5-0.2-0.4,0c0.2,0.5,2.4,2.3,2.5,1.8c0-0.1-0.1-0.3-0.2-0.4C34.3,79.9,33.4,79.3,33,79.2
			"/>
		<path class="st0" d="M32.7,78c0-0.2-0.2-0.4-0.2-0.5c-0.5-0.7-1.3-1.1-1.6-1.2c-0.4-0.1-0.4,0.3,0.1,0.8
			C31.7,77.9,32.7,78.5,32.7,78"/>
		<path class="st0" d="M28.8,73c-0.5,0.3,0.4,1.7,1.1,1.9c0.5,0.2,0.7-0.1,0.2-1C29.6,73.1,29,72.9,28.8,73"/>
		<path class="st0" d="M26.9,69.6c-0.2,0.7,0.6,2.3,1.1,2.1c0.2-0.1,0.3-0.7-0.1-1.6C27.4,69.2,27,69.3,26.9,69.6"/>
		<path class="st0" d="M25.3,65.8c0,0.1,0,0.2,0,0.3c0,0.9,0.5,2.5,0.9,2.2c0.2-0.2,0.3-1.2-0.2-2.2C25.6,65.4,25.3,65.6,25.3,65.8"
			/>
		<path class="st0" d="M24,62.1c0,0.1-0.1,0.3,0,0.8c0,0.9,0.4,2.4,0.6,2.2c0.1-0.1,0.2-1.7-0.2-2.8C24.2,61.8,24.1,61.9,24,62.1"/>
	</g>
	<g>
		<path class="st0" d="M112,72.5V40h6v13.7h14.7V40h6v32.5h-6v-14H118v13.9L112,72.5L112,72.5z"/>
		<path class="st0" d="M142,61.1c0-6.8,4.1-11.9,11.7-11.9s11.7,5.1,11.7,11.9c0,6.7-4.1,11.8-11.7,11.8S142,67.9,142,61.1z
			 M147.8,61.1c0,4.2,1.9,7.4,5.9,7.4c3.9,0,5.9-3.2,5.9-7.4s-1.9-7.4-5.9-7.4S147.8,56.9,147.8,61.1z"/>
		<path class="st0" d="M188.4,72.5H183l-0.1-3.2h-0.1c-1.4,2.2-3.9,3.7-6.9,3.7c-4.7,0-7.9-3.1-7.9-7.8V49.7h5.7v14.5
			c0,2.4,1.3,4.2,4.1,4.2c3,0,4.9-2.1,4.9-5V49.7h5.7V72.5z"/>
		<path class="st0" d="M192.5,72.5V40h5.7v32.5H192.5z"/>
		<path class="st0" d="M202.2,40h6v5.2h-6V40z M202.3,72.5V49.7h5.7v22.7L202.3,72.5L202.3,72.5z"/>
		<path class="st0" d="M212.1,40h5.7v12.8h0.1c1.4-2.2,3.8-3.6,6.9-3.6c4.7,0,7.7,3.1,7.7,7.7v15.5h-5.7V57.9c0-2.3-1.4-4.2-4.1-4.2
			c-3,0-4.9,2.2-4.9,5v13.7h-5.7V40z"/>
		<path class="st0" d="M249.4,72.5l-0.1-3.2h-0.1c-1.3,2.3-3.6,3.7-6.6,3.7c-4.4,0-7.2-2.9-7.2-6.9c0-2.8,1.4-4.9,4.3-5.9
			c2.3-0.8,5.9-1,9.5-1.1v-1.7c0-2.1-1.4-3.6-4.1-3.6c-2.5,0-3.9,1.2-4.6,3l-4.4-2.2c1.5-3.5,4.6-5.2,9.2-5.2c6.1,0,9.5,3,9.5,8
			v15.2L249.4,72.5L249.4,72.5z M249.1,63.8v-1.2c-1.4,0.1-3.3,0.2-4.8,0.4c-1.8,0.3-3.3,0.9-3.3,2.8c0,1.7,1.2,2.9,3.4,2.9
			C247.2,68.7,249.1,66.5,249.1,63.8z"/>
		<path class="st0" d="M258.8,49.7h5.4l0.1,3.2h0.1c1.4-2.3,3.9-3.7,6.9-3.7c4.8,0,7.9,3.1,7.9,7.8v15.4h-5.7V57.9
			c0-2.3-1.4-4.2-4.1-4.2c-3,0-4.9,2.2-4.9,5v13.7h-5.7L258.8,49.7L258.8,49.7z"/>
		<path class="st0" d="M294.6,40h6v27.6h15.7v4.9h-21.7V40z"/>
		<path class="st0" d="M317,61.1c0-6.8,4.1-11.9,11.7-11.9s11.7,5.1,11.7,11.9c0,6.7-4.1,11.8-11.7,11.8S317,67.9,317,61.1z
			 M322.8,61.1c0,4.2,1.9,7.4,5.9,7.4c3.9,0,5.9-3.2,5.9-7.4s-1.9-7.4-5.9-7.4C324.8,53.7,322.8,56.9,322.8,61.1z"/>
		<path class="st0" d="M351.1,62.7h-2.2v9.7h-5.7V40h5.7v18.6h2.3l5.5-8.8h6.6L356,60.7l7.7,11.9H357L351.1,62.7z"/>
		<path class="st0" d="M384.1,69c-2,2.4-5,3.9-9.2,3.9c-7.7,0-11.8-4.7-11.8-11.8c0-6.9,4-11.9,11.2-11.9c7.1,0,10.6,4.9,10.6,11.1
			c0,0.8,0,1.9-0.2,2.5h-15.8c0.4,3.5,2.3,5.6,6.1,5.6c2.2,0,4.1-0.9,5.5-2.8L384.1,69z M379.3,59.1c-0.3-3.2-1.7-5.5-5-5.5
			s-5,2.2-5.3,5.5H379.3z"/>
		<path class="st0" d="M407.8,49.7L398.5,74c-1.8,4.7-3.9,6.7-8.1,6.7c-1.4,0-2.4-0.2-3.1-0.5v-4.1c0.5,0.1,1.2,0.3,2,0.3
			c2,0,3.2-0.8,4-3.3l-8.9-23.4h6.1l5.7,16.8h0.1l5.7-16.8C402,49.7,407.8,49.7,407.8,49.7z"/>
	</g>
</g>
</svg>
