<?xml version="1.0" encoding="utf-8"?>
<!-- Generator: Adobe Illustrator 26.4.0, SVG Export Plug-In . SVG Version: 6.00 Build 0)  -->
<svg version="1.1" id="Layer_1" xmlns="http://www.w3.org/2000/svg" xmlns:xlink="http://www.w3.org/1999/xlink" x="0px" y="0px"
	 viewBox="0 0 185.6 112.9" style="enable-background:new 0 0 185.6 112.9;" xml:space="preserve">
<style type="text/css">
	.st0{fill:#002855;}
</style>
<g>
	<path class="st0" d="M20.4,49.1V20.7h5.2v11.9h12.8V20.7h5.2v28.4h-5.2V36.9H25.6v12.2C25.6,49.1,20.4,49.1,20.4,49.1z"/>
	<path class="st0" d="M46.4,39.2c0-5.9,3.6-10.3,10.2-10.3s10.2,4.4,10.2,10.3s-3.6,10.3-10.2,10.3C49.9,49.5,46.4,45,46.4,39.2z
		 M51.4,39.2c0,3.7,1.7,6.5,5.1,6.5c3.4,0,5.1-2.8,5.1-6.5s-1.7-6.5-5.1-6.5S51.4,35.5,51.4,39.2z"/>
	<path class="st0" d="M86.7,49.1H82l-0.1-2.8h-0.1c-1.3,2-3.4,3.2-6.1,3.2c-4.1,0-6.9-2.7-6.9-6.8V29.2h5v12.7
		c0,2.1,1.1,3.7,3.5,3.7c2.7,0,4.3-1.8,4.3-4.4v-12h5L86.7,49.1L86.7,49.1z"/>
	<path class="st0" d="M90.2,49.1V20.7h5v28.4H90.2z"/>
	<path class="st0" d="M98.4,20.7h5.2v4.5h-5.2V20.7z M98.6,49.1V29.2h5V49L98.6,49.1L98.6,49.1z"/>
	<path class="st0" d="M107,20.7h5v11.2h0.1c1.3-2,3.3-3.1,6-3.1c4.1,0,6.8,2.7,6.8,6.8v13.5h-5V36.4c0-2-1.2-3.7-3.5-3.7
		c-2.7,0-4.3,1.9-4.3,4.4V49h-5L107,20.7L107,20.7z"/>
	<path class="st0" d="M139.3,49.1l-0.1-2.8h-0.1c-1.1,2-3.1,3.2-5.8,3.2c-3.8,0-6.3-2.5-6.3-6c0-2.4,1.2-4.3,3.8-5.2
		c2-0.7,5.1-0.9,8.3-1v-1.5c0-1.8-1.3-3.1-3.6-3.1c-2.1,0-3.4,1.1-4,2.6l-3.8-1.9c1.3-3,4-4.6,8.1-4.6c5.4,0,8.3,2.6,8.3,7v13.3
		C144.1,49.1,139.3,49.1,139.3,49.1z M139,41.5v-1.1c-1.2,0.1-2.8,0.2-4.2,0.4c-1.6,0.2-2.9,0.8-2.9,2.4c0,1.4,1.1,2.5,3,2.5
		C137.4,45.7,139,43.9,139,41.5z"/>
	<path class="st0" d="M147.4,29.2h4.7l0.1,2.8h0.1c1.2-2,3.4-3.2,6.1-3.2c4.2,0,6.9,2.7,6.9,6.8V49h-5V36.4c0-2-1.2-3.7-3.5-3.7
		c-2.7,0-4.3,1.9-4.3,4.4V49h-5V29.2H147.4z"/>
	<path class="st0" d="M20.4,56.7h5.2v24.1h13.8v4.3h-19C20.4,85.1,20.4,56.7,20.4,56.7z"/>
	<path class="st0" d="M39.8,75.2c0-5.9,3.6-10.3,10.2-10.3s10.2,4.4,10.2,10.3S56.6,85.5,50,85.5S39.8,81.1,39.8,75.2z M44.8,75.2
		c0,3.7,1.7,6.5,5.1,6.5c3.4,0,5.1-2.8,5.1-6.5s-1.7-6.5-5.1-6.5S44.8,71.5,44.8,75.2z"/>
	<path class="st0" d="M69.4,76.6h-2v8.5h-5V56.7h5V73h2l4.8-7.7H80l-6.4,9.5l6.7,10.3h-5.8L69.4,76.6z"/>
	<path class="st0" d="M98,82.1c-1.8,2.1-4.3,3.4-8.1,3.4c-6.7,0-10.3-4.1-10.3-10.3c0-6,3.5-10.3,9.8-10.3c6.2,0,9.3,4.2,9.3,9.7
		c0,0.7,0,1.7-0.1,2.2H84.8c0.4,3,2,4.9,5.3,4.9c1.9,0,3.5-0.8,4.8-2.4L98,82.1z M93.7,73.4c-0.2-2.8-1.4-4.7-4.3-4.7
		s-4.3,1.9-4.6,4.8L93.7,73.4L93.7,73.4z"/>
	<path class="st0" d="M118.5,65.3l-8.1,21.1c-1.6,4.1-3.4,5.8-7.1,5.8c-1.2,0-2.1-0.2-2.7-0.4v-3.6c0.5,0.1,1,0.2,1.7,0.2
		c1.8,0,2.8-0.7,3.5-2.9L98,65.2h5.4l5,14.7l0,0l5-14.7L118.5,65.3L118.5,65.3z"/>
</g>
</svg>
