<?xml version="1.0" encoding="utf-8"?>
<!-- Generator: Adobe Illustrator 26.4.0, SVG Export Plug-In . SVG Version: 6.00 Build 0)  -->
<svg version="1.1" id="Layer_1" xmlns="http://www.w3.org/2000/svg" xmlns:xlink="http://www.w3.org/1999/xlink" x="0px" y="0px"
	 viewBox="0 0 327.4 84.2" style="enable-background:new 0 0 327.4 84.2;" xml:space="preserve">
<style type="text/css">
	.st0{fill:#FFFFFF;}
</style>
<g>
	<path class="st0" d="M22.4,53.8V22.7h5.7v13.1h14V22.7h5.7v31.1h-5.7V40.5h-14v13.3C28.1,53.8,22.4,53.8,22.4,53.8z"/>
	<path class="st0" d="M51,42.9c0-6.5,4-11.3,11.2-11.3s11.2,4.9,11.2,11.3s-4,11.3-11.2,11.3C54.9,54.2,51,49.4,51,42.9z M56.6,42.9
		c0,4,1.9,7.1,5.6,7.1c3.8,0,5.6-3.1,5.6-7.1s-1.9-7.1-5.6-7.1C58.4,35.8,56.6,38.9,56.6,42.9z"/>
	<path class="st0" d="M95.4,53.8h-5.1l-0.1-3.1h-0.1c-1.4,2.1-3.7,3.5-6.6,3.5c-4.5,0-7.5-3-7.5-7.5V32h5.4v13.9c0,2.3,1.3,4,3.9,4
		c2.9,0,4.7-2,4.7-4.8V32h5.4C95.4,32,95.4,53.8,95.4,53.8z"/>
	<path class="st0" d="M99.4,53.8V22.7h5.5v31.1C104.9,53.8,99.4,53.8,99.4,53.8z"/>
	<path class="st0" d="M108.6,22.7h5.7v5h-5.7V22.7z M108.7,53.8V32h5.5v21.7L108.7,53.8L108.7,53.8z"/>
	<path class="st0" d="M118.1,22.7h5.5V35h0.1c1.4-2.1,3.6-3.4,6.6-3.4c4.5,0,7.4,3,7.4,7.4v14.8h-5.5V39.9c0-2.2-1.3-4-3.9-4
		c-2.9,0-4.7,2.1-4.7,4.8v13.1h-5.5C118.1,53.8,118.1,22.7,118.1,22.7z"/>
	<path class="st0" d="M153.7,53.8l-0.1-3.1h-0.1c-1.3,2.2-3.4,3.5-6.4,3.5c-4.2,0-6.9-2.8-6.9-6.6c0-2.7,1.3-4.7,4.1-5.7
		c2.2-0.8,5.6-1,9.1-1.1v-1.6c0-2-1.4-3.4-3.9-3.4c-2.3,0-3.7,1.2-4.4,2.9l-4.2-2.1c1.5-3.3,4.4-5,8.8-5c5.9,0,9.1,2.9,9.1,7.6v14.5
		L153.7,53.8L153.7,53.8z M153.4,45.5v-1.2c-1.3,0.1-3.1,0.2-4.6,0.4c-1.7,0.2-3.2,0.9-3.2,2.6c0,1.6,1.2,2.8,3.2,2.8
		C151.7,50.1,153.4,48.1,153.4,45.5z"/>
	<path class="st0" d="M162.7,32h5.1l0.1,3.1h0.1c1.3-2.2,3.7-3.5,6.6-3.5c4.6,0,7.5,3,7.5,7.5v14.7h-5.5V39.9c0-2.2-1.3-4-3.9-4
		c-2.9,0-4.7,2.1-4.7,4.8v13.1h-5.5V32H162.7z"/>
	<path class="st0" d="M197,22.7h5.7v26.4h15v4.7h-20.8V22.7H197z"/>
	<path class="st0" d="M218.4,42.9c0-6.5,4-11.3,11.2-11.3s11.2,4.9,11.2,11.3s-4,11.3-11.2,11.3C222.3,54.2,218.4,49.4,218.4,42.9z
		 M223.9,42.9c0,4,1.9,7.1,5.6,7.1c3.8,0,5.6-3.1,5.6-7.1s-1.9-7.1-5.6-7.1S223.9,38.9,223.9,42.9z"/>
	<path class="st0" d="M251,44.5h-2.1v9.3h-5.5V22.7h5.5v17.8h2.2l5.3-8.5h6.3l-7,10.4l7.3,11.3h-6.4L251,44.5z"/>
	<path class="st0" d="M282.5,50.5c-1.9,2.3-4.7,3.7-8.8,3.7c-7.4,0-11.2-4.5-11.2-11.3c0-6.6,3.8-11.3,10.7-11.3
		c6.8,0,10.2,4.7,10.2,10.6c0,0.8,0,1.8-0.2,2.4h-15.1c0.4,3.3,2.2,5.4,5.8,5.4c2.1,0,3.9-0.9,5.2-2.6L282.5,50.5z M277.9,41
		c-0.2-3.1-1.6-5.2-4.8-5.2s-4.7,2.1-5.1,5.2H277.9z"/>
	<path class="st0" d="M305.2,32l-8.9,23.2c-1.7,4.5-3.7,6.4-7.7,6.4c-1.3,0-2.3-0.2-3-0.4v-4c0.5,0.1,1.1,0.2,1.9,0.2
		c1.9,0,3.1-0.7,3.8-3.2l-8.5-22.3h5.8l5.5,16.1h0.1l5.5-16.1L305.2,32L305.2,32z"/>
</g>
</svg>
