<?xml version="1.0" encoding="utf-8"?>
<!-- Generator: Adobe Illustrator 26.4.0, SVG Export Plug-In . SVG Version: 6.00 Build 0)  -->
<svg version="1.1" id="Layer_1" xmlns="http://www.w3.org/2000/svg" xmlns:xlink="http://www.w3.org/1999/xlink" x="0px" y="0px"
	 viewBox="0 0 232 105.3" style="enable-background:new 0 0 232 105.3;" xml:space="preserve">
<style type="text/css">
	.st0{fill:#002855;}
	.st1{fill:#7E8597;}
	.st2{fill:#4F8BC9;}
</style>
<g>
	<g>
		<path class="st0" d="M105.3,49.7V28.4h3.9v9h9.7v-9h4v21.4h-4v-9.2h-9.7v9.2h-3.9V49.7z"/>
		<path class="st0" d="M125.2,42.3c0-4.5,2.7-7.8,7.7-7.8s7.7,3.3,7.7,7.8c0,4.4-2.7,7.8-7.7,7.8C127.9,50,125.2,46.7,125.2,42.3z
			 M129,42.3c0,2.8,1.3,4.9,3.9,4.9c2.6,0,3.9-2.1,3.9-4.9s-1.3-4.9-3.9-4.9C130.3,37.4,129,39.5,129,42.3z"/>
		<path class="st0" d="M155.9,49.7h-3.5l-0.1-2.1h-0.1c-0.9,1.5-2.6,2.4-4.6,2.4c-3.1,0-5.2-2.1-5.2-5.1V34.8h3.8v9.5
			c0,1.6,0.9,2.8,2.7,2.8c2,0,3.2-1.4,3.2-3.3v-9h3.8L155.9,49.7L155.9,49.7z"/>
		<path class="st0" d="M158.9,49.7V28.4h3.8v21.4L158.9,49.7L158.9,49.7z"/>
		<path class="st0" d="M165.4,28.4h3.9v3.4h-3.9V28.4z M165.5,49.7V34.8h3.8v14.9C169.3,49.7,165.5,49.7,165.5,49.7z"/>
		<path class="st0" d="M172.2,28.4h3.8v8.5h0.1c0.9-1.5,2.5-2.3,4.5-2.3c3.1,0,5.1,2,5.1,5.1v10.2h-3.8v-9.5c0-1.5-0.9-2.8-2.7-2.8
			c-2,0-3.2,1.4-3.2,3.3v9h-3.8L172.2,28.4L172.2,28.4z"/>
		<path class="st0" d="M196.9,49.7l-0.1-2.1h-0.1c-0.9,1.5-2.3,2.4-4.4,2.4c-2.9,0-4.8-1.9-4.8-4.5c0-1.8,0.9-3.2,2.8-3.9
			c1.5-0.5,3.9-0.7,6.2-0.8v-1.1c0-1.4-0.9-2.4-2.7-2.4c-1.6,0-2.6,0.8-3,2l-2.9-1.4c1-2.3,3-3.4,6.1-3.4c4,0,6.3,2,6.3,5.3v10
			L196.9,49.7L196.9,49.7L196.9,49.7z M196.7,44v-0.8c-0.9,0.1-2.1,0.1-3.1,0.3c-1.2,0.2-2.2,0.6-2.2,1.8c0,1.1,0.8,1.9,2.2,1.9
			C195.5,47.2,196.7,45.8,196.7,44z"/>
		<path class="st0" d="M203.3,34.8h3.5l0.1,2.1h0.1c0.9-1.5,2.5-2.4,4.6-2.4c3.1,0,5.2,2.1,5.2,5.1v10.1H213v-9.5
			c0-1.5-0.9-2.8-2.7-2.8c-2,0-3.2,1.4-3.2,3.3v9h-3.8V34.8L203.3,34.8z"/>
		<path class="st0" d="M105.3,55.5h3.9v18.1h10.3v3.2h-14.2C105.3,76.8,105.3,55.5,105.3,55.5z"/>
		<path class="st0" d="M120.2,69.4c0-4.5,2.7-7.8,7.7-7.8s7.7,3.3,7.7,7.8c0,4.4-2.7,7.8-7.7,7.8S120.2,73.8,120.2,69.4z M124,69.4
			c0,2.8,1.3,4.9,3.9,4.9s3.9-2.1,3.9-4.9s-1.3-4.9-3.9-4.9S124,66.6,124,69.4z"/>
		<path class="st0" d="M142.9,70.5h-1.5v6.4h-3.8V55.5h3.8v12.2h1.5l3.6-5.8h4.3L146,69l5,7.8h-4.4L142.9,70.5z"/>
		<path class="st0" d="M164.8,74.6c-1.3,1.6-3.3,2.6-6.1,2.6c-5.1,0-7.7-3.1-7.7-7.8c0-4.5,2.6-7.8,7.3-7.8c4.6,0,7,3.2,7,7.3
			c0,0.6,0,1.3-0.1,1.7h-10.4c0.3,2.3,1.5,3.7,4,3.7c1.4,0,2.7-0.6,3.6-1.8L164.8,74.6z M161.6,68.1c-0.2-2.1-1.1-3.6-3.3-3.6
			s-3.3,1.4-3.5,3.6H161.6z"/>
		<path class="st0" d="M180.6,61.9l-6.1,15.9c-1.2,3.1-2.6,4.4-5.3,4.4c-0.9,0-1.6-0.1-2.1-0.3v-2.7c0.4,0.1,0.8,0.2,1.3,0.2
			c1.3,0,2.1-0.5,2.6-2.2l-5.8-15.3h4l3.8,11h0.1l3.8-11C176.9,61.9,180.6,61.9,180.6,61.9z"/>
	</g>
	<g>
		<path class="st1" d="M46.5,43.3c-1.4,1.4-0.5,4,1.9,4c1.9-0.2,2.5-1.7,2.4-2.7C50.6,42.6,47.9,41.8,46.5,43.3"/>
		<path class="st1" d="M54.8,43.3c-1.3,1.4-0.5,3.8,1.9,4c1.9,0,2.7-1.5,2.6-2.5C59.2,42.6,56.3,41.7,54.8,43.3"/>
		<path class="st1" d="M63.5,43.6c-1.5,1.3-1,3.9,1.4,4.2c1.9,0.1,2.7-1.3,2.7-2.4C67.6,43.4,65.1,42.3,63.5,43.6"/>
		<path class="st1" d="M38.3,36c-1.4,1.5-0.7,4,1.6,3.8c1.8-0.3,2.5-1.8,2.4-2.8C42.2,35.1,39.7,34.5,38.3,36"/>
		<path class="st1" d="M48.2,39.3c1.9-0.2,2.7-1.7,2.5-2.7c-0.2-2-3-2.7-4.5-1.1C45,37,45.8,39.3,48.2,39.3"/>
		<path class="st1" d="M54.8,35.4c-1.3,1.4-0.4,3.7,2,3.9c2,0,2.7-1.5,2.6-2.5C59.2,34.7,56.3,33.9,54.8,35.4"/>
		<path class="st1" d="M63.4,35.8c-1.2,1.3-0.3,3.7,2,4c2,0.1,2.6-1.3,2.5-2.4C67.6,35.4,64.8,34.4,63.4,35.8"/>
		<path class="st1" d="M71.6,36.7c-1.1,1.2-0.3,3.7,1.8,4.1c1.7,0.2,2.2-1.2,2.1-2.2C75.3,36.6,72.8,35.4,71.6,36.7"/>
		<path class="st1" d="M26.8,30.8c-1.7,1.2-2.3,3.7-0.9,3.8c0.2,0,0.3,0,0.5,0c1.3-0.4,2.1-1.9,2.3-2.8C28.9,30.5,28,30,26.8,30.8"
			/>
		<path class="st1" d="M32.4,29.7c-1.6,1.2-1.8,3.3-0.3,3.5c0.2,0,0.4,0,0.6,0c1.6-0.3,2.4-1.7,2.5-2.6
			C35.4,29.1,33.9,28.6,32.4,29.7"/>
		<path class="st1" d="M39.1,29c-1.5,1.3-1,3.3,0.9,3.3c0.1,0,0.2,0,0.2,0c1.8-0.2,2.6-1.6,2.6-2.5C42.8,28.2,40.6,27.7,39.1,29"/>
		<path class="st1" d="M46.4,28.7c-1,1.1-0.5,3.1,1.9,3.1c1.9-0.1,2.6-1.4,2.5-2.3C50.6,27.6,47.8,27.1,46.4,28.7"/>
		<path class="st1" d="M56.7,31.7c1.9,0,2.6-1.3,2.4-2.2c-0.4-1.8-3.3-2.5-4.6-1C53.6,29.6,54.3,31.6,56.7,31.7"/>
		<path class="st1" d="M65.1,32.2c1.9,0.1,2.4-1.1,2.1-2c-0.5-1.8-3.5-2.7-4.5-1.3C61.9,29.9,62.8,31.9,65.1,32.2"/>
		<path class="st1" d="M74.5,31.3c-0.6-1.9-3.2-2.9-4-1.6c-0.6,1.1,0.5,3.1,2.4,3.5C74.5,33.5,74.8,32.3,74.5,31.3"/>
		<path class="st1" d="M77.1,30.9c-0.5,1,0.6,3.2,2.2,3.7c1.2,0.3,1.3-0.9,1-1.8C79.6,31,77.6,29.8,77.1,30.9"/>
		<path class="st1" d="M84.3,34.6c-0.6-1.7-1.9-3-2.3-2.3c-0.4,0.8,0.8,3.4,1.9,4.1C84.8,36.7,84.7,35.5,84.3,34.6"/>
		<path class="st1" d="M26.5,26c-1,0.2-3.6,3.4-2.9,3.7c0.1,0,0.2,0,0.4-0.1c0.9-0.5,2-1.8,2.4-2.5S26.9,25.9,26.5,26"/>
		<path class="st1" d="M30.4,24.6C28.7,25.2,27,27.7,28,28c0.2,0.1,0.4,0,0.5,0c1.3-0.4,2.3-1.6,2.6-2.3
			C31.6,24.7,31.3,24.3,30.4,24.6"/>
		<path class="st1" d="M35,23.7c-1.7,0.9-2.4,2.6-1.2,3c0.3,0.1,0.5,0,0.7,0c1.5-0.3,2.4-1.5,2.6-2.2C37.4,23.4,36.4,23,35,23.7"/>
		<path class="st1" d="M40.4,23.3c-1.3,1-1.1,2.4,0.4,2.5c0.1,0,0.3,0,0.4,0c1.6-0.2,2.5-1.3,2.6-2C43.9,22.4,41.9,22.1,40.4,23.3"
			/>
		<path class="st1" d="M47,23c-0.8,0.9-0.4,2.3,1.7,2.3c1.7-0.1,2.4-1.2,2.4-1.9C50.8,22,48.2,21.7,47,23"/>
		<path class="st1" d="M56.4,25.3c1.8,0,2.3-1,2-1.7c-0.5-1.5-3.3-2-4.2-0.7C53.6,23.8,54.3,25.2,56.4,25.3"/>
		<path class="st1" d="M65.7,24.2c-0.7-1.5-3.6-2.2-4.2-1c-0.4,0.8,0.6,2.3,2.6,2.6C65.8,25.9,66,24.9,65.7,24.2"/>
		<path class="st1" d="M72.2,25.2c-0.9-1.5-3.3-2.4-3.7-1.3c-0.4,0.9,1,2.5,2.7,2.9C72.7,26.9,72.7,26,72.2,25.2"/>
		<path class="st1" d="M77,28c1.1,0.3,0.8-0.7,0.4-1.3c0-0.1-0.1-0.1-0.1-0.2c-1-1.4-2.8-2.4-3.1-1.7C74,25.5,75.4,27.5,77,28"/>
		<path class="st1" d="M81,28.1c-0.9-1.3-2.3-2.4-2.4-2c-0.1,0.5,1.5,2.9,2.7,3.5c0.5,0.2,0.4-0.2,0.3-0.5
			C81.5,28.9,81.3,28.6,81,28.1"/>
		<path class="st1" d="M32.1,22.6c1.1-0.3,2.2-1.3,2.7-1.8S35.3,20,35,20c-1.1,0.1-3.9,2.3-3.4,2.6C31.8,22.7,32,22.6,32.1,22.6"/>
		<path class="st1" d="M36.5,21.5c0.2,0.1,0.5,0.1,0.6,0c1.3-0.3,2.3-1.2,2.6-1.7c0.4-0.6,0.1-0.9-0.7-0.8
			C37.4,19.5,35.6,21.1,36.5,21.5"/>
		<path class="st1" d="M42.8,18.8c-1.2,0.7-1.6,1.6-0.6,1.9c0.2,0.1,0.4,0,0.7,0c1.4-0.2,2.2-1,2.4-1.5
			C45.6,18.3,44.2,18.1,42.8,18.8"/>
		<path class="st1" d="M47.9,18.8c-0.6,0.6-0.3,1.6,1.3,1.6c1.5-0.1,2.1-0.9,2-1.4C51.2,17.9,48.9,17.7,47.9,18.8"/>
		<path class="st1" d="M55.8,20.3c1.3,0,1.9-0.7,1.6-1.3c-0.5-1.2-3.1-1.4-3.6-0.3C53.5,19.4,54.2,20.2,55.8,20.3"/>
		<path class="st1" d="M63.4,19.6c-0.8-1-3.4-1.7-3.6-0.6c-0.1,0.6,0.8,1.6,2.5,1.8C63.6,20.8,63.9,20.2,63.4,19.6"/>
		<path class="st1" d="M68.4,21.5c1.2,0.2,0.9-0.5,0.6-0.9c-0.1-0.1-0.2-0.2-0.2-0.3c-1-1-3.2-1.8-3.3-1
			C65.5,19.9,66.9,21.2,68.4,21.5"/>
		<path class="st1" d="M73.4,22.6c0.7,0.2,0.5-0.2,0.4-0.4c-0.1-0.1-0.3-0.4-0.7-0.7c-1.2-1-2.8-1.8-2.8-1.4
			C70.2,20.5,72,22.2,73.4,22.6"/>
		<path class="st1" d="M40.7,17.8c1-0.2,2.1-0.8,2.5-1.1c0.1-0.1,0.4-0.4,0.2-0.4c-0.6-0.1-3.6,1.1-3.2,1.4
			C40.3,17.8,40.5,17.8,40.7,17.8"/>
		<path class="st1" d="M45.1,17.2c1-0.1,1.8-0.6,2.1-0.9s0-0.5-0.8-0.4c-1.3,0.2-2.5,1-1.9,1.2C44.7,17.2,44.9,17.2,45.1,17.2"/>
		<path class="st1" d="M49,16.1c-0.4,0.3-0.2,0.8,1,0.8c1.1-0.1,1.6-0.5,1.6-0.8C51.6,15.4,49.7,15.5,49,16.1"/>
		<path class="st1" d="M56.1,16.1c-0.6-0.6-2.7-0.7-2.7,0c0,0.3,0.5,0.7,1.6,0.8C56.1,16.9,56.4,16.4,56.1,16.1"/>
		<path class="st1" d="M60.1,17.2c1,0.1,0.9-0.3,0.7-0.5c-0.1-0.1-0.2-0.1-0.3-0.2c-0.9-0.6-2.8-0.9-2.7-0.4
			C57.9,16.4,58.8,17,60.1,17.2"/>
		<path class="st1" d="M64.8,17.8c0.6,0.1,0.6-0.1,0.4-0.2c0-0.1-0.2-0.2-0.7-0.5c-1-0.5-2.7-1-2.7-0.7
			C61.9,16.6,63.4,17.5,64.8,17.8"/>
	</g>
	<g>
		<path class="st2" d="M60.5,55.2c1.9,0.8,3.9-1.1,3.3-3.1c-0.5-1.9-3.2-2.4-4.4-0.4C58.6,53.4,59.6,54.8,60.5,55.2"/>
		<path class="st2" d="M56.2,62.5c1.9,1,4.1-1.1,3.5-3.2c-0.6-1.8-3-2.3-4.4-0.3C54.4,60.6,55.3,62,56.2,62.5"/>
		<path class="st2" d="M51.4,69.4c1.7,1,4-0.7,3.7-2.7s-2.9-2.8-4.4-0.9C49.7,67.4,50.5,68.9,51.4,69.4"/>
		<path class="st2" d="M71.4,51.6c1.7,0.8,3.5-1,2.9-3s-3.1-2.6-4.1-0.5C69.4,49.8,70.4,51.2,71.4,51.6"/>
		<path class="st2" d="M67.5,59.1c1.9,0.8,3.9-1.3,3.2-3.4c-0.6-1.8-3-2.2-4.2-0.2C65.6,57.3,66.5,58.7,67.5,59.1"/>
		<path class="st2" d="M62.1,63.1c-1,1.7-0.1,3.1,0.9,3.5c1.9,0.8,4.1-1.3,3.5-3.3C66,61.5,63.5,61,62.1,63.1"/>
		<path class="st2" d="M58.2,73.6c1.9,0.8,4.2-1.2,3.7-3.1c-0.5-1.7-3-2.1-4.5-0.3C56.4,71.9,57.2,73.2,58.2,73.6"/>
		<path class="st2" d="M52.5,76.7c-1,1.3-0.1,2.5,0.9,2.9c1.9,0.8,4.2-0.7,3.6-2.4C56.5,75.7,53.9,75.1,52.5,76.7"/>
		<path class="st2" d="M82.7,42.4c1,0.9,1.9,0.3,1.8-1.1c-0.2-2.1-2-3.8-2.8-2.7c-0.1,0.1-0.2,0.3-0.2,0.4
			C81.1,40.4,82,41.8,82.7,42.4"/>
		<path class="st2" d="M80.4,48.7c1.2,0.8,2.4-0.2,2.2-2c-0.2-2-2-3.2-2.9-2c-0.1,0.2-0.2,0.4-0.3,0.5
			C78.9,46.8,79.7,48.2,80.4,48.7"/>
		<path class="st2" d="M77.4,55.6c1.4,0.8,2.9-0.9,2.6-2.8c-0.4-2-2.4-2.5-3.3-0.9c0,0.1-0.1,0.1-0.1,0.2
			C75.9,53.8,76.6,55.2,77.4,55.6"/>
		<path class="st2" d="M72.9,59.4c-0.8,1.7-0.1,3,0.7,3.4c1.7,0.7,3.5-1.5,2.8-3.4C76,57.9,74.1,57.4,72.9,59.4"/>
		<path class="st2" d="M69.4,69.9c1.8,0.6,3.8-1.6,3.2-3.4c-0.5-1.3-2.5-1.7-3.9,0.3C67.8,68.4,68.6,69.6,69.4,69.9"/>
		<path class="st2" d="M64.8,76.6c1.8,0.5,4.1-1.7,3.4-3.3c-0.5-1.2-2.7-1.4-4.1,0.4C63.1,75.4,63.9,76.4,64.8,76.6"/>
		<path class="st2" d="M60.2,82.4c2,0.4,4.1-1.3,3.4-2.7c-0.6-1.1-2.9-1.1-4.2,0.4C58.3,81.3,59.2,82.2,60.2,82.4"/>
		<path class="st2" d="M59.3,84.8c-0.6-0.9-3.1-1-4.3,0c-0.9,0.9,0.1,1.6,1.1,1.8C58,86.9,60,85.8,59.3,84.8"/>
		<path class="st2" d="M51.1,88.1c-0.7,0.6,0.4,1.1,1.4,1.2c1.8,0.3,3.5-0.2,3.1-0.9C55.1,87.7,52.2,87.4,51.1,88.1"/>
		<path class="st2" d="M88.8,43.4c0.4-1-1.2-4.8-1.7-4.4C87,39.1,87,39.2,87,39.3c0,1.1,0.6,2.6,1,3.3
			C88.3,43.5,88.7,43.8,88.8,43.4"/>
		<path class="st2" d="M88,47.5c0.3-1.8-1-4.5-1.7-3.7c-0.1,0.1-0.2,0.3-0.2,0.5c-0.3,1.3,0.3,2.8,0.7,3.4
			C87.3,48.4,87.9,48.4,88,47.5"/>
		<path class="st2" d="M84.8,53.3c0.8,0.8,1.7,0.1,1.7-1.4c0.1-1.9-1.1-3.4-1.9-2.6c-0.2,0.2-0.3,0.4-0.4,0.6
			C83.8,51.3,84.3,52.7,84.8,53.3"/>
		<path class="st2" d="M82.1,59.5c1.1,0.8,2.4-0.8,2.1-2.6c-0.2-1.7-1.5-2.2-2.4-0.9c-0.1,0.1-0.1,0.3-0.2,0.4
			C81,57.8,81.5,59.1,82.1,59.5"/>
		<path class="st2" d="M81.1,62.6c-0.4-1.2-1.8-1.5-2.8,0.3c-0.8,1.6-0.2,2.7,0.4,3C80.1,66.5,81.7,64.4,81.1,62.6"/>
		<path class="st2" d="M74.4,69.6c-0.9,1.5-0.2,2.5,0.5,2.6c1.6,0.4,3.4-1.8,2.7-3.3C77.2,68,75.6,67.9,74.4,69.6"/>
		<path class="st2" d="M70.8,78.3c1.7,0.1,3.7-2,3-3.2c-0.5-0.8-2.3-0.7-3.5,0.9C69.3,77.5,70,78.2,70.8,78.3"/>
		<path class="st2" d="M69.7,80.9c-0.6-0.7-2.7-0.4-3.9,0.9c-0.9,1.2-0.1,1.7,0.8,1.6C68.4,83.4,70.4,81.7,69.7,80.9"/>
		<path class="st2" d="M61.8,86.2c-0.8,0.8,0.2,1.1,0.9,1c0.1,0,0.1,0,0.2,0c1.7-0.1,3.5-1.2,3-1.8C65.5,84.9,63,85.1,61.8,86.2"/>
		<path class="st2" d="M58.3,89.2c-0.5,0.4,0,0.5,0.3,0.5c0.2,0,0.6,0,1.2,0c1.6-0.2,3.2-0.8,2.9-1.1C62.3,88.2,59.4,88.4,58.3,89.2
			"/>
		<path class="st2" d="M89.2,49.6C89.1,49.7,89,49.9,89,50c-0.2,1.1,0,2.6,0.2,3.3s0.4,0.9,0.6,0.6C90.2,52.8,89.8,49.3,89.2,49.6"
			/>
		<path class="st2" d="M87.7,54.3c-0.2,0.1-0.3,0.4-0.3,0.5c-0.4,1.3-0.2,2.6,0.1,3.1c0.3,0.7,0.8,0.6,1-0.3
			C89,56.1,88.5,53.8,87.7,54.3"/>
		<path class="st2" d="M85.5,59.7c-0.2,0.2-0.3,0.4-0.4,0.6c-0.5,1.3-0.3,2.4,0.1,2.8c0.7,0.7,1.5-0.4,1.6-1.9
			C86.9,59.7,86.2,59,85.5,59.7"/>
		<path class="st2" d="M82.3,65.9c-0.7,1.3-0.3,2.2,0.2,2.5c1,0.5,2.3-1.5,1.9-2.8C84.1,64.7,83.2,64.5,82.3,65.9"/>
		<path class="st2" d="M79.3,73.6c1.3,0.1,2.8-2,2.1-3c-0.4-0.5-1.5-0.4-2.4,1C78.4,72.8,78.7,73.6,79.3,73.6"/>
		<path class="st2" d="M78.3,75.8c-0.4-0.4-1.8-0.1-2.8,1.3c-0.7,1.1-0.3,1.7,0.5,1.5C77.2,78.4,79.1,76.5,78.3,75.8"/>
		<path class="st2" d="M71.7,82c-0.7,0.9,0,1,0.5,1c0.1,0,0.2,0,0.3-0.1c1.4-0.4,3.1-1.9,2.5-2.3C74.5,80.2,72.8,80.8,71.7,82"/>
		<path class="st2" d="M68.3,85.8c-0.5,0.5-0.1,0.5,0.2,0.5c0.2,0,0.5-0.1,1-0.2c1.4-0.5,2.9-1.5,2.6-1.8
			C71.7,84,69.3,84.8,68.3,85.8"/>
		<path class="st2" d="M89.1,59.4c-0.1,0-0.2,0.3-0.3,0.4c-0.3,1-0.4,2.2-0.3,2.7c0,0.2,0.1,0.6,0.2,0.5
			C89.1,62.5,89.6,59.3,89.1,59.4"/>
		<path class="st2" d="M87.5,63.4c-0.2,0.1-0.3,0.4-0.4,0.5c-0.4,1-0.4,1.9-0.3,2.3c0.2,0.4,0.5,0.2,0.7-0.5
			C88.1,64.5,88,63.1,87.5,63.4"/>
		<path class="st2" d="M85,68.3c-0.5,1-0.4,1.7-0.1,1.8c0.6,0.3,1.5-1.3,1.3-2.2C86,67.4,85.5,67.3,85,68.3"/>
		<path class="st2" d="M82.4,72.7c-0.6,1-0.3,1.4,0.1,1.3c0.9-0.2,2-1.9,1.4-2.3C83.7,71.5,83.1,71.7,82.4,72.7"/>
		<path class="st2" d="M79.7,76.9c-0.6,0.8-0.2,0.9,0,0.9c0.1,0,0.2-0.1,0.3-0.1c0.9-0.5,2.2-2,1.7-2.1
			C81.4,75.4,80.4,75.9,79.7,76.9"/>
		<path class="st2" d="M76.8,80.7c-0.4,0.5-0.2,0.5-0.1,0.5s0.3-0.1,0.8-0.4c0.9-0.6,2.2-1.9,2-1.9C79.2,78.8,77.7,79.7,76.8,80.7"
			/>
	</g>
	<g>
		<path class="st0" d="M40.4,47.8c1.7-0.3,2.3-1.8,2.1-2.8c-0.3-2-2.9-2.7-4.1-1.1C37.2,45.4,38.2,47.9,40.4,47.8"/>
		<path class="st0" d="M47.7,62.8c1.9,0.5,3.7-1.6,2.5-3.7c-1.1-1.5-2.7-1.4-3.5-0.7C45,59.6,45.6,62.3,47.7,62.8"/>
		<path class="st0" d="M43.6,55.6c1.9,0.4,3.5-1.5,2.5-3.6c-1-1.6-2.6-1.6-3.5-1C40.7,52.2,41.4,55.1,43.6,55.6"/>
		<path class="st0" d="M48,70.2c-1.1-1.5-2.8-1.3-3.7-0.7c-1.6,1.1-0.9,3.5,1.1,4C47.5,74.1,49.2,72.2,48,70.2"/>
		<path class="st0" d="M41.1,66.9c1.9,0.4,3.4-1.5,2.3-3.6c-1.1-1.6-2.8-1.5-3.6-0.9C38.1,63.7,38.9,66.4,41.1,66.9"/>
		<path class="st0" d="M36.7,59.5c1.8,0.4,3.4-1.5,2.3-3.7c-1-1.7-2.6-1.6-3.5-1C33.9,56.1,34.6,59,36.7,59.5"/>
		<path class="st0" d="M32.7,51.9c1.7,0.4,3.4-1.6,2.5-3.8c-0.9-1.7-2.5-1.6-3.3-1C30.3,48.4,30.8,51.4,32.7,51.9"/>
		<path class="st0" d="M29.4,44.3c1.6,0.3,3.3-1.6,2.7-3.6c-0.7-1.5-2.1-1.3-3-0.7C27.5,41.2,27.7,43.9,29.4,44.3"/>
		<path class="st0" d="M50.2,84.6c-1-0.9-2.7-0.9-3.5-0.6c-1.3,0.5-1.2,1.5,0,2.1c1.8,0.9,4.3,0.2,3.8-1.1
			C50.4,84.8,50.3,84.7,50.2,84.6"/>
		<path class="st0" d="M42.9,81.8c1.8,0.8,3.8-0.1,3.2-1.5c-0.1-0.2-0.2-0.4-0.3-0.5c-1.1-1.2-2.7-1.2-3.5-0.9
			C41,79.5,41.3,81.1,42.9,81.8"/>
		<path class="st0" d="M39,76.4c1.9,0.7,3.4-0.8,2.4-2.4c0-0.1-0.1-0.1-0.1-0.2c-1.1-1.4-2.7-1.4-3.4-1C36.5,73.6,37.1,75.8,39,76.4
			"/>
		<path class="st0" d="M36.8,67c-1.1-1.6-2.6-1.6-3.3-1C32,67.1,33,69.8,35,70.2C36.5,70.5,37.9,69,36.8,67"/>
		<path class="st0" d="M32.6,59.7c-1-1.7-2.4-1.6-3.1-1c-1.4,1.2-0.5,4.1,1.4,4.5C32.3,63.5,33.6,61.9,32.6,59.7"/>
		<path class="st0" d="M27.1,56c1.3,0.2,2.6-1.6,1.7-3.8c-0.9-1.7-2.2-1.5-2.8-0.8C24.7,52.7,25.4,55.7,27.1,56"/>
		<path class="st0" d="M24,48.8c1.2,0,2.4-2,1.8-3.9c-0.6-1.5-1.8-1.1-2.4-0.4C22,46,22.4,48.7,24,48.8"/>
		<path class="st0" d="M21.7,38.8c-1.2,1.5-1.3,3.8-0.1,3.7c1.1-0.1,2.5-2.2,2.1-3.8C23.4,37.5,22.4,38,21.7,38.8"/>
		<path class="st0" d="M20.4,37.5c0.9-0.1,2.6-2.4,2.6-3.7c-0.1-0.9-1.1-0.2-1.7,0.6C20.1,35.7,19.6,37.5,20.4,37.5"/>
		<path class="st0" d="M47.1,89.2c-0.9-0.6-2.5-0.8-3.4-0.8c-0.8,0-1.3,0.2-1,0.4c0.7,0.8,4.7,1.4,4.6,0.7
			C47.3,89.4,47.2,89.3,47.1,89.2"/>
		<path class="st0" d="M43.7,86.5c0-0.2-0.2-0.3-0.3-0.4c-1-0.9-2.6-1.1-3.3-1.1c-1,0.1-1.2,0.6-0.5,1.2C41,87.3,44,87.6,43.7,86.5"
			/>
		<path class="st0" d="M39.7,82.2c-0.1-0.2-0.2-0.4-0.3-0.6c-1-1.1-2.5-1.4-3.2-1.2c-1.1,0.3-1,1.4,0.3,2.2
			C38.2,83.6,40,83.4,39.7,82.2"/>
		<path class="st0" d="M33.4,78.1c1.5,0.6,2.6-0.2,2-1.6c-0.1-0.1-0.1-0.3-0.2-0.4c-1-1.3-2.4-1.5-3-1.2
			C30.9,75.5,31.7,77.4,33.4,78.1"/>
		<path class="st0" d="M28.3,68.8c-1.2,0.9-0.2,3.3,1.6,3.7c1.2,0.2,2.2-0.8,1.2-2.6C30.1,68.5,28.9,68.4,28.3,68.8"/>
		<path class="st0" d="M27.2,63.2c-0.9-1.5-2-1.4-2.5-0.9c-1.1,1.2-0.1,3.8,1.5,4C27.3,66.4,28.2,65.1,27.2,63.2"/>
		<path class="st0" d="M21.6,55.7c-1,1.4-0.1,4.2,1.3,4.1c0.9,0,1.7-1.6,0.9-3.5C23,54.8,22,55,21.6,55.7"/>
		<path class="st0" d="M19.9,53.5c0.9-0.1,1.7-2.1,1.1-3.8c-0.6-1.4-1.4-0.9-1.8-0.1C18.3,51.1,18.8,53.6,19.9,53.5"/>
		<path class="st0" d="M17.8,44.2c0,0.1-0.1,0.1-0.1,0.2C17,46,17,48,17.8,47.9c0.7-0.1,1.7-2.4,1.4-4
			C18.9,42.9,18.2,43.6,17.8,44.2"/>
		<path class="st0" d="M16.8,43.6c0.5-0.1,1.7-2.8,1.7-4.1c-0.1-0.6-0.4-0.2-0.6,0c-0.1,0.2-0.3,0.5-0.6,1
			C16.6,41.9,16.3,43.7,16.8,43.6"/>
		<path class="st0" d="M34,84.2c-0.7-0.2-1-0.1-0.8,0.2c0.7,0.9,3.9,2.3,4,1.6c0-0.1-0.1-0.3-0.2-0.4C36.1,84.9,34.7,84.4,34,84.2"
			/>
		<path class="st0" d="M33.8,82.4c0-0.2-0.2-0.4-0.3-0.6c-0.9-1-2.1-1.4-2.7-1.5c-0.7,0-0.9,0.4-0.3,1
			C31.6,82.6,33.9,83.3,33.8,82.4"/>
		<path class="st0" d="M30.3,77.8c-0.1-0.2-0.2-0.4-0.3-0.6c-0.8-1.1-2-1.4-2.5-1.3c-0.9,0.2-0.4,1.5,0.9,2.3
			C29.6,79,30.6,78.8,30.3,77.8"/>
		<path class="st0" d="M25.8,73.9c0.9,0.2,1.5-0.5,0.7-1.9c-0.8-1.2-1.8-1.4-2.2-1.1C23.4,71.5,24.4,73.5,25.8,73.9"/>
		<path class="st0" d="M21.3,65.5c-0.7,1.1,0.4,3.4,1.5,3.3c0.6-0.1,1.1-1.1,0.4-2.5C22.5,65.1,21.7,64.9,21.3,65.5"/>
		<path class="st0" d="M19.9,63.5c0.6-0.2,1-1.5,0.3-3.1c-0.6-1.2-1.3-1.1-1.6-0.4C18.2,61.3,19,63.8,19.9,63.5"/>
		<path class="st0" d="M17.9,54.7c-0.5-1.1-0.9-0.6-1.1-0.1c0,0.1-0.1,0.2-0.1,0.3c-0.3,1.4,0.1,3.7,0.8,3.4
			C18,58,18.4,56.2,17.9,54.7"/>
		<path class="st0" d="M16.4,49.8c-0.2-0.7-0.4-0.4-0.5-0.1c-0.1,0.2-0.2,0.4-0.3,1c-0.3,1.5-0.1,3.3,0.2,3.2
			C16.2,53.7,16.7,51.2,16.4,49.8"/>
		<path class="st0" d="M26.4,79c-0.2-0.1-0.6-0.3-0.5-0.1c0.2,0.5,2.7,2.6,2.9,2.1c0-0.1-0.1-0.3-0.2-0.4
			C27.8,79.9,26.8,79.3,26.4,79"/>
		<path class="st0" d="M26.1,77.7c0-0.2-0.2-0.4-0.3-0.6c-0.6-0.8-1.5-1.3-1.8-1.4c-0.4-0.1-0.4,0.3,0.1,0.9
			C24.9,77.6,26.1,78.3,26.1,77.7"/>
		<path class="st0" d="M21.6,72c-0.5,0.3,0.4,1.9,1.3,2.2c0.5,0.2,0.8-0.2,0.2-1.2C22.5,72.1,21.8,71.9,21.6,72"/>
		<path class="st0" d="M19.4,68.1c-0.3,0.9,0.7,2.7,1.3,2.4c0.2-0.2,0.4-0.9-0.1-1.9C20,67.7,19.5,67.7,19.4,68.1"/>
		<path class="st0" d="M17.5,63.7c0,0.1,0,0.2,0,0.3c0,1.1,0.6,2.9,1,2.6c0.3-0.2,0.3-1.4-0.2-2.5C17.9,63.2,17.6,63.5,17.5,63.7"/>
		<path class="st0" d="M16.1,59.4c0,0.1-0.1,0.3-0.1,0.9c0.1,1.1,0.5,2.9,0.7,2.7s0.2-2-0.3-3.2C16.3,59.2,16.2,59.3,16.1,59.4"/>
	</g>
</g>
</svg>
