<?xml version="1.0" encoding="utf-8"?>
<!-- Generator: Adobe Illustrator 26.4.0, SVG Export Plug-In . SVG Version: 6.00 Build 0)  -->
<svg version="1.1" id="Layer_1" xmlns="http://www.w3.org/2000/svg" xmlns:xlink="http://www.w3.org/1999/xlink" x="0px" y="0px"
	 viewBox="0 0 205.2 126.2" style="enable-background:new 0 0 205.2 126.2;" xml:space="preserve">
<style type="text/css">
	.st0{fill:#7E8597;}
	.st1{fill:#4F8BC9;}
	.st2{fill:#002855;}
</style>
<g>
	<g>
		<path class="st0" d="M93.3,15.9c0.8-0.2,1.7-0.6,2-0.8c0.1-0.1,0.4-0.3,0.2-0.3c-0.4-0.1-2.9,0.9-2.6,1.2
			C93,16,93.2,15.9,93.3,15.9"/>
		<g>
			<path class="st0" d="M98,36.5c-1.1,1.1-0.4,3.2,1.5,3.2c1.5-0.1,2-1.3,1.9-2.2C101.3,35.9,99.2,35.3,98,36.5"/>
			<path class="st0" d="M104.7,36.5c-1,1.1-0.4,3,1.5,3.2c1.5,0,2.2-1.2,2.1-2C108.2,35.9,105.9,35.2,104.7,36.5"/>
			<path class="st0" d="M111.7,36.7c-1.2,1-0.8,3.1,1.2,3.4c1.5,0.1,2.2-1.1,2.2-1.9C115,36.6,112.9,35.6,111.7,36.7"/>
			<path class="st0" d="M91.4,30.6c-1.2,1.2-0.6,3.2,1.3,3.1c1.5-0.2,2-1.5,1.9-2.3C94.5,29.9,92.6,29.4,91.4,30.6"/>
			<path class="st0" d="M99.4,33.3c1.6-0.1,2.1-1.3,2-2.2c-0.2-1.6-2.4-2.2-3.6-0.9C96.8,31.4,97.5,33.2,99.4,33.3"/>
			<path class="st0" d="M104.7,30.1c-1,1.1-0.3,3,1.6,3.1c1.6,0,2.2-1.2,2.1-2C108.2,29.6,105.9,28.9,104.7,30.1"/>
			<path class="st0" d="M111.6,30.4c-1,1-0.3,3,1.6,3.2c1.6,0.1,2.1-1.1,2-1.9C115,30.1,112.7,29.3,111.6,30.4"/>
			<path class="st0" d="M118.2,31.2c-0.8,1-0.2,3,1.5,3.3c1.3,0.2,1.8-1,1.7-1.8C121.1,31,119.2,30.1,118.2,31.2"/>
			<path class="st0" d="M82.2,26.4c-1.4,0.9-1.9,2.9-0.8,3.1c0.1,0,0.3,0,0.4,0c1.1-0.4,1.7-1.5,1.8-2.2
				C83.9,26.2,83.2,25.8,82.2,26.4"/>
			<path class="st0" d="M86.7,25.5c-1.3,1-1.5,2.7-0.2,2.8c0.2,0,0.3,0,0.5,0c1.3-0.3,1.9-1.4,2-2.1C89.1,25.1,87.9,24.7,86.7,25.5"
				/>
			<path class="st0" d="M92,24.9c-1.2,1-0.8,2.7,0.7,2.7c0.1,0,0.1,0,0.2,0c1.4-0.2,2.1-1.3,2.1-2C95,24.3,93.3,23.9,92,24.9"/>
			<path class="st0" d="M98,24.7c-0.8,0.9-0.4,2.5,1.5,2.5c1.5-0.1,2.1-1.2,2-1.9C101.3,23.9,99.1,23.5,98,24.7"/>
			<path class="st0" d="M106.2,27.2c1.6,0,2.1-1,1.9-1.7c-0.3-1.5-2.7-2-3.7-0.8C103.8,25.5,104.3,27,106.2,27.2"/>
			<path class="st0" d="M113,27.6c1.5,0.1,1.9-0.9,1.7-1.6c-0.4-1.5-2.8-2.2-3.6-1.1C110.4,25.7,111.1,27.3,113,27.6"/>
			<path class="st0" d="M120.5,26.9c-0.5-1.5-2.6-2.3-3.2-1.3c-0.5,0.9,0.4,2.5,2,2.8C120.6,28.6,120.8,27.6,120.5,26.9"/>
			<path class="st0" d="M122.6,26.5c-0.4,0.8,0.5,2.6,1.8,3c1,0.2,1.1-0.7,0.8-1.5C124.6,26.6,123,25.6,122.6,26.5"/>
			<path class="st0" d="M128.4,29.5c-0.5-1.3-1.6-2.4-1.8-1.8c-0.3,0.6,0.6,2.7,1.5,3.3C128.8,31.2,128.7,30.2,128.4,29.5"/>
			<path class="st0" d="M82,22.6c-0.8,0.1-2.9,2.7-2.3,3c0.1,0,0.2,0,0.3-0.1c0.8-0.4,1.6-1.4,1.9-2S82.3,22.5,82,22.6"/>
			<path class="st0" d="M85.1,21.4c-1.4,0.5-2.8,2.5-1.9,2.7c0.1,0,0.3,0,0.4,0c1-0.3,1.8-1.3,2.1-1.9C86,21.6,85.8,21.2,85.1,21.4"
				/>
			<path class="st0" d="M88.8,20.7c-1.4,0.7-2,2.1-1,2.4c0.2,0.1,0.4,0,0.5,0c1.2-0.2,1.9-1.2,2.1-1.7
				C90.7,20.5,89.9,20.2,88.8,20.7"/>
			<path class="st0" d="M93.2,20.4c-1.1,0.8-0.9,1.9,0.3,2c0.1,0,0.2,0,0.3,0c1.3-0.2,2-1.1,2.1-1.6C96,19.7,94.3,19.5,93.2,20.4"/>
			<path class="st0" d="M98.4,20.2c-0.6,0.7-0.3,1.9,1.3,1.9c1.4-0.1,1.9-0.9,1.9-1.5C101.5,19.3,99.4,19.1,98.4,20.2"/>
			<path class="st0" d="M105.9,22c1.4,0,1.8-0.8,1.6-1.4c-0.4-1.2-2.6-1.6-3.4-0.6C103.7,20.8,104.3,21.9,105.9,22"/>
			<path class="st0" d="M113.4,21.1c-0.6-1.2-2.9-1.8-3.4-0.8c-0.3,0.7,0.4,1.9,2.1,2.1C113.5,22.5,113.7,21.7,113.4,21.1"/>
			<path class="st0" d="M118.7,21.9c-0.8-1.2-2.7-1.9-3-1.1c-0.3,0.7,0.8,2,2.2,2.3C119.1,23.3,119.1,22.5,118.7,21.9"/>
			<path class="st0" d="M122.6,24.2c0.9,0.2,0.7-0.5,0.4-1.1l-0.1-0.1c-0.8-1.1-2.2-2-2.5-1.4C120.2,22.2,121.3,23.8,122.6,24.2"/>
			<path class="st0" d="M125.8,24.2c-0.8-1-1.8-1.9-1.9-1.6c-0.1,0.4,1.2,2.3,2.2,2.8c0.4,0.2,0.3-0.2,0.2-0.4
				C126.2,24.9,126,24.6,125.8,24.2"/>
			<path class="st0" d="M86.5,19.8c0.9-0.3,1.8-1,2.2-1.5c0.4-0.4,0.4-0.7,0.1-0.6c-0.9,0.1-3.1,1.8-2.7,2.1
				C86.2,19.9,86.4,19.8,86.5,19.8"/>
			<path class="st0" d="M90,18.9c0.2,0.1,0.4,0,0.5,0c1-0.2,1.8-0.9,2.1-1.3c0.3-0.5,0.1-0.8-0.6-0.6C90.7,17.3,89.3,18.6,90,18.9"
				/>
			<path class="st0" d="M95.1,16.8c-1,0.5-1.3,1.3-0.5,1.5c0.2,0,0.4,0,0.5,0c1.1-0.1,1.8-0.8,1.9-1.2
				C97.3,16.4,96.2,16.2,95.1,16.8"/>
			<path class="st0" d="M99.1,16.7c-0.5,0.5-0.3,1.3,1.1,1.3c1.2-0.1,1.7-0.7,1.6-1.1C101.8,16,99.9,15.9,99.1,16.7"/>
			<path class="st0" d="M105.5,18c1.1,0,1.5-0.5,1.3-1c-0.4-0.9-2.5-1.1-2.9-0.3C103.7,17.2,104.2,17.9,105.5,18"/>
			<path class="st0" d="M111.6,17.4c-0.7-0.8-2.7-1.3-2.9-0.5c-0.1,0.5,0.7,1.3,2,1.5C111.8,18.4,112,17.9,111.6,17.4"/>
			<path class="st0" d="M115.6,19c1,0.1,0.7-0.4,0.5-0.7c-0.1-0.1-0.1-0.1-0.2-0.2c-0.8-0.9-2.5-1.5-2.6-0.9
				C113.3,17.7,114.4,18.7,115.6,19"/>
			<path class="st0" d="M119.6,19.8c0.5,0.1,0.4-0.1,0.3-0.3c-0.1-0.1-0.2-0.3-0.6-0.6c-0.9-0.8-2.3-1.4-2.3-1.1
				C117,18.2,118.5,19.5,119.6,19.8"/>
			<path class="st0" d="M96.9,15.5c0.8-0.1,1.5-0.5,1.7-0.7c0.2-0.3,0-0.4-0.6-0.3c-1.1,0.2-2,0.8-1.6,1
				C96.5,15.5,96.8,15.5,96.9,15.5"/>
			<path class="st0" d="M100,14.6c-0.3,0.3-0.1,0.6,0.8,0.6c0.9-0.1,1.3-0.4,1.3-0.7C102.1,14.1,100.6,14.1,100,14.6"/>
			<path class="st0" d="M105.7,14.6c-0.5-0.5-2.1-0.6-2.2-0.1c0.1,0.3,0.5,0.7,1.4,0.7S105.9,14.9,105.7,14.6"/>
			<path class="st0" d="M108.9,15.5c0.8,0.1,0.7-0.2,0.6-0.4c0,0-0.1-0.1-0.2-0.2c-0.7-0.4-2.3-0.7-2.2-0.3
				C107.2,14.9,107.9,15.3,108.9,15.5"/>
			<path class="st0" d="M112.7,15.9c0.5,0.1,0.4,0,0.4-0.2c0,0-0.2-0.2-0.6-0.4c-0.8-0.4-2.2-0.8-2.1-0.6
				C110.4,15,111.6,15.7,112.7,15.9"/>
		</g>
	</g>
	<g>
		<path class="st1" d="M109.3,46c1.5,0.6,3.1-0.9,2.7-2.5c-0.4-1.5-2.6-1.9-3.6-0.3C107.8,44.6,108.6,45.7,109.3,46"/>
		<path class="st1" d="M105.8,51.9c1.6,0.8,3.3-0.9,2.8-2.6c-0.5-1.5-2.4-1.9-3.5-0.3C104.4,50.4,105.1,51.5,105.8,51.9"/>
		<path class="st1" d="M102,57.4c1.4,0.8,3.2-0.5,3-2.1c-0.3-1.6-2.3-2.2-3.5-0.7C100.6,55.9,101.3,57,102,57.4"/>
		<path class="st1" d="M118,43.2c1.4,0.6,2.8-0.8,2.3-2.4c-0.5-1.6-2.5-2.1-3.3-0.4C116.5,41.7,117.3,42.8,118,43.2"/>
		<path class="st1" d="M114.9,49.2c1.5,0.7,3.1-1,2.6-2.7c-0.5-1.5-2.4-1.8-3.4-0.2C113.4,47.8,114.1,48.9,114.9,49.2"/>
		<path class="st1" d="M110.6,52.4c-0.8,1.4,0,2.5,0.7,2.8c1.5,0.6,3.3-1,2.8-2.7C113.7,51.1,111.7,50.7,110.6,52.4"/>
		<path class="st1" d="M107.4,60.8c1.5,0.6,3.4-0.9,3-2.5c-0.4-1.4-2.4-1.7-3.6-0.2C105.9,59.5,106.7,60.5,107.4,60.8"/>
		<path class="st1" d="M102.8,63.3c-0.8,1.1-0.1,2,0.7,2.4c1.5,0.7,3.4-0.6,2.9-2C106,62.5,104,62.1,102.8,63.3"/>
		<path class="st1" d="M127.1,35.7c0.8,0.7,1.5,0.3,1.5-0.9c-0.1-1.6-1.6-3.1-2.3-2.2c-0.1,0.1-0.1,0.2-0.2,0.4
			C125.9,34.1,126.5,35.3,127.1,35.7"/>
		<path class="st1" d="M125.3,40.8c1,0.7,1.9-0.2,1.8-1.6c-0.2-1.6-1.6-2.6-2.4-1.6c-0.1,0.1-0.2,0.3-0.2,0.4
			C124.1,39.3,124.7,40.4,125.3,40.8"/>
		<path class="st1" d="M122.9,46.4c1.1,0.6,2.4-0.7,2.1-2.3s-1.9-2-2.7-0.7c0,0.1-0.1,0.1-0.1,0.2C121.6,44.9,122.2,46,122.9,46.4"
			/>
		<path class="st1" d="M119.3,49.4c-0.7,1.4-0.1,2.4,0.6,2.7c1.3,0.6,2.8-1.2,2.3-2.8C121.8,48.2,120.2,47.8,119.3,49.4"/>
		<path class="st1" d="M116.5,57.8c1.4,0.5,3.1-1.3,2.5-2.8c-0.4-1.1-2-1.4-3.1,0.2C115.1,56.7,115.8,57.6,116.5,57.8"/>
		<path class="st1" d="M112.7,63.3c1.5,0.4,3.3-1.4,2.7-2.6c-0.4-1-2.1-1.1-3.3,0.3C111.4,62.2,112,63.1,112.7,63.3"/>
		<path class="st1" d="M109,67.9c1.6,0.3,3.3-1.1,2.7-2.2c-0.5-0.9-2.3-0.9-3.4,0.3C107.5,67.1,108.3,67.7,109,67.9"/>
		<path class="st1" d="M108.3,69.8c-0.5-0.7-2.5-0.8-3.5,0c-0.7,0.8,0.1,1.3,0.9,1.4C107.2,71.6,108.8,70.7,108.3,69.8"/>
		<path class="st1" d="M101.7,72.5c-0.6,0.5,0.3,0.9,1.1,1c1.4,0.2,2.8-0.2,2.5-0.7C104.9,72.2,102.6,71.9,101.7,72.5"/>
		<path class="st1" d="M132,36.6c0.3-0.8-0.9-3.9-1.4-3.5c-0.1,0.1-0.1,0.2-0.1,0.3c0,0.9,0.5,2.1,0.8,2.7
			C131.6,36.6,131.9,36.8,132,36.6"/>
		<path class="st1" d="M131.4,39.8c0.3-1.4-0.8-3.6-1.4-3c-0.1,0.1-0.1,0.2-0.2,0.4c-0.2,1.1,0.2,2.2,0.6,2.7
			C130.9,40.6,131.3,40.5,131.4,39.8"/>
		<path class="st1" d="M128.8,44.5c0.6,0.7,1.3,0.1,1.4-1.1c0.1-1.6-0.9-2.8-1.6-2.1c-0.1,0.1-0.2,0.3-0.3,0.5
			C128,42.9,128.4,44.1,128.8,44.5"/>
		<path class="st1" d="M126.6,49.5c0.9,0.7,1.9-0.6,1.7-2.1c-0.2-1.3-1.2-1.7-1.9-0.8c-0.1,0.1-0.1,0.2-0.2,0.3
			C125.7,48.1,126.1,49.1,126.6,49.5"/>
		<path class="st1" d="M125.9,52c-0.3-0.9-1.5-1.2-2.3,0.2c-0.6,1.3-0.2,2.2,0.4,2.4C125,55.1,126.3,53.4,125.9,52"/>
		<path class="st1" d="M120.5,57.6c-0.7,1.2-0.2,2,0.4,2.1c1.3,0.3,2.7-1.5,2.2-2.6C122.7,56.3,121.4,56.2,120.5,57.6"/>
		<path class="st1" d="M117.5,64.6c1.4,0.1,3-1.6,2.4-2.6c-0.4-0.6-1.8-0.6-2.8,0.8C116.3,64,116.9,64.6,117.5,64.6"/>
		<path class="st1" d="M116.6,66.7c-0.5-0.6-2.1-0.3-3.1,0.8c-0.7,0.9,0,1.3,0.7,1.3C115.7,68.7,117.2,67.4,116.6,66.7"/>
		<path class="st1" d="M110.3,71c-0.6,0.7,0.1,0.9,0.7,0.8c0.1,0,0.1,0,0.2,0c1.4-0.1,2.8-1,2.4-1.5C113.3,69.9,111.3,70.1,110.3,71
			"/>
		<path class="st1" d="M107.5,73.3c-0.4,0.3,0,0.4,0.3,0.4c0.2,0,0.5,0,0.9,0c1.3-0.1,2.6-0.6,2.4-0.9
			C110.8,72.6,108.4,72.8,107.5,73.3"/>
		<path class="st1" d="M132.3,41.5c-0.1,0-0.2,0.2-0.2,0.3c-0.2,0.9,0,2.1,0.2,2.6s0.4,0.7,0.5,0.4
			C133.2,44.1,132.8,41.3,132.3,41.5"/>
		<path class="st1" d="M131.2,45.3c-0.1,0.1-0.2,0.3-0.3,0.4c-0.3,1-0.1,2.1,0.1,2.5c0.3,0.5,0.6,0.4,0.8-0.2
			C132.2,46.8,131.8,44.9,131.2,45.3"/>
		<path class="st1" d="M129.4,49.6c-0.1,0.1-0.2,0.3-0.3,0.4c-0.4,1-0.2,2,0.1,2.3c0.5,0.6,1.2-0.3,1.3-1.5
			C130.5,49.7,129.9,49.1,129.4,49.6"/>
		<path class="st1" d="M126.8,54.7c-0.5,1.1-0.2,1.8,0.1,2c0.8,0.4,1.8-1.2,1.5-2.3C128.3,53.7,127.5,53.5,126.8,54.7"/>
		<path class="st1" d="M124.4,60.9c1,0.1,2.2-1.6,1.7-2.4c-0.3-0.4-1.2-0.3-1.9,0.8C123.7,60.2,123.9,60.8,124.4,60.9"/>
		<path class="st1" d="M123.6,62.6c-0.4-0.3-1.4-0.1-2.3,1c-0.6,0.9-0.3,1.3,0.4,1.2C122.7,64.7,124.2,63.2,123.6,62.6"/>
		<path class="st1" d="M118.3,67.6c-0.6,0.8,0,0.8,0.4,0.8c0.1,0,0.2,0,0.3-0.1c1.1-0.3,2.5-1.5,2-1.9
			C120.6,66.2,119.1,66.6,118.3,67.6"/>
		<path class="st1" d="M115.5,70.6c-0.4,0.4-0.1,0.4,0.1,0.4c0.1,0,0.4,0,0.8-0.2c1.1-0.4,2.4-1.2,2.1-1.4
			C118.3,69.2,116.4,69.8,115.5,70.6"/>
		<path class="st1" d="M132.3,49.4c-0.1,0-0.2,0.2-0.2,0.3c-0.3,0.8-0.3,1.7-0.3,2.1c0,0.2,0.1,0.5,0.2,0.4
			C132.3,51.9,132.7,49.3,132.3,49.4"/>
		<path class="st1" d="M131,52.6c-0.1,0.1-0.2,0.3-0.3,0.4c-0.3,0.8-0.3,1.5-0.2,1.8s0.4,0.2,0.6-0.4
			C131.4,53.5,131.4,52.4,131,52.6"/>
		<path class="st1" d="M128.9,56.6c-0.4,0.8-0.3,1.3-0.1,1.5c0.4,0.2,1.2-1.1,1-1.8C129.8,55.8,129.4,55.8,128.9,56.6"/>
		<path class="st1" d="M126.9,60.1c-0.4,0.8-0.2,1.1,0.1,1c0.7-0.1,1.6-1.6,1.1-1.8C127.9,59.2,127.4,59.3,126.9,60.1"/>
		<path class="st1" d="M124.7,63.5c-0.4,0.7-0.2,0.7,0,0.7c0.1,0,0.2-0.1,0.3-0.1c0.8-0.4,1.8-1.6,1.4-1.7
			C126.1,62.3,125.3,62.7,124.7,63.5"/>
		<path class="st1" d="M122.4,66.5c-0.3,0.4-0.2,0.4,0,0.4c0.1,0,0.2-0.1,0.6-0.3c0.7-0.5,1.8-1.5,1.6-1.6
			C124.4,65,123.1,65.7,122.4,66.5"/>
	</g>
	<g>
		<path class="st2" d="M93.1,40.1c1.4-0.2,1.8-1.5,1.7-2.3c-0.3-1.6-2.3-2.1-3.3-0.9C90.5,38.2,91.3,40.2,93.1,40.1"/>
		<path class="st2" d="M99,52.2c1.5,0.4,3-1.3,2-2.9c-0.9-1.2-2.2-1.1-2.8-0.6C96.8,49.6,97.3,51.8,99,52.2"/>
		<path class="st2" d="M95.7,46.3c1.5,0.3,2.8-1.2,2-2.9c-0.8-1.3-2.1-1.3-2.8-0.8C93.4,43.6,93.9,46,95.7,46.3"/>
		<path class="st2" d="M99.2,58.1c-0.9-1.2-2.3-1-2.9-0.6c-1.3,0.9-0.7,2.8,0.9,3.2C98.8,61.2,100.2,59.7,99.2,58.1"/>
		<path class="st2" d="M93.7,55.4c1.5,0.3,2.8-1.2,1.8-2.9c-0.9-1.3-2.2-1.2-2.9-0.7C91.3,52.8,92,55.1,93.7,55.4"/>
		<path class="st2" d="M90.1,49.5c1.5,0.3,2.7-1.2,1.9-3c-0.8-1.4-2.1-1.3-2.8-0.8C87.9,46.8,88.5,49.1,90.1,49.5"/>
		<path class="st2" d="M87,43.4c1.4,0.3,2.7-1.3,2-3c-0.7-1.4-2-1.3-2.6-0.8C85,40.6,85.4,43,87,43.4"/>
		<path class="st2" d="M84.3,37.3c1.3,0.3,2.7-1.3,2.1-2.9c-0.5-1.2-1.7-1.1-2.4-0.6C82.7,34.8,82.9,37,84.3,37.3"/>
		<path class="st2" d="M101,69.7c-0.8-0.7-2.2-0.7-2.8-0.5c-1,0.4-1,1.2,0,1.7c1.5,0.7,3.5,0.1,3-0.9
			C101.2,69.9,101.1,69.8,101,69.7"/>
		<path class="st2" d="M95.2,67.4c1.5,0.7,3-0.1,2.6-1.2c-0.1-0.2-0.2-0.3-0.2-0.4c-0.9-1-2.2-1-2.8-0.7
			C93.6,65.6,93.8,66.8,95.2,67.4"/>
		<path class="st2" d="M92,63.1c1.5,0.6,2.7-0.6,1.9-2c0-0.1-0.1-0.1-0.1-0.2c-0.9-1.1-2.1-1.2-2.7-0.8C90,60.8,90.5,62.6,92,63.1"
			/>
		<path class="st2" d="M90.2,55.5c-0.9-1.3-2.1-1.3-2.6-0.8c-1.2,0.9-0.4,3,1.2,3.4C90,58.3,91.1,57.2,90.2,55.5"/>
		<path class="st2" d="M86.8,49.7c-0.8-1.3-1.9-1.3-2.5-0.8c-1.1,1-0.4,3.3,1.1,3.6C86.6,52.7,87.7,51.4,86.8,49.7"/>
		<path class="st2" d="M82.4,46.6c1,0.1,2.1-1.3,1.3-3c-0.7-1.4-1.7-1.2-2.3-0.7C80.5,44.1,81.1,46.5,82.4,46.6"/>
		<path class="st2" d="M79.9,40.9c1,0,1.9-1.6,1.4-3.1c-0.5-1.2-1.5-0.9-2-0.3C78.3,38.6,78.7,40.8,79.9,40.9"/>
		<path class="st2" d="M78.1,32.8c-1,1.2-1,3,0,3c0.9-0.1,2-1.7,1.7-3C79.5,31.8,78.6,32.2,78.1,32.8"/>
		<path class="st2" d="M77,31.8c0.7-0.1,2.1-1.9,2.1-3c-0.1-0.7-0.9-0.1-1.4,0.5C76.8,30.4,76.4,31.8,77,31.8"/>
		<path class="st2" d="M98.5,73.4c-0.7-0.5-2-0.7-2.7-0.7s-1,0.1-0.8,0.3c0.5,0.6,3.8,1.1,3.7,0.6C98.7,73.5,98.6,73.4,98.5,73.4"/>
		<path class="st2" d="M95.8,71.2c0-0.1-0.1-0.3-0.2-0.4c-0.8-0.7-2.1-0.9-2.7-0.9c-0.8,0.1-1,0.5-0.4,0.9
			C93.6,71.8,96,72,95.8,71.2"/>
		<path class="st2" d="M92.6,67.7c-0.1-0.2-0.2-0.3-0.3-0.5c-0.8-0.9-2-1.1-2.6-1c-0.9,0.2-0.8,1.1,0.3,1.8
			C91.3,68.9,92.8,68.7,92.6,67.7"/>
		<path class="st2" d="M87.5,64.4c1.2,0.5,2.1-0.2,1.6-1.3c0-0.1-0.1-0.2-0.2-0.3c-0.8-1.1-1.9-1.2-2.4-1
			C85.5,62.3,86.1,63.9,87.5,64.4"/>
		<path class="st2" d="M83.4,57c-1,0.7-0.1,2.7,1.3,3c1,0.2,1.8-0.7,1-2.1C84.9,56.7,83.9,56.6,83.4,57"/>
		<path class="st2" d="M82.5,52.5c-0.7-1.2-1.6-1.2-2-0.7c-0.9,0.9-0.1,3.1,1.2,3.2C82.6,55.1,83.3,54,82.5,52.5"/>
		<path class="st2" d="M78,46.5c-0.8,1.1-0.1,3.4,1,3.3c0.8,0,1.4-1.3,0.8-2.8C79.1,45.7,78.3,45.9,78,46.5"/>
		<path class="st2" d="M76.6,44.6c0.7-0.1,1.3-1.7,0.9-3.1c-0.5-1.1-1.1-0.7-1.5-0.1C75.4,42.8,75.7,44.8,76.6,44.6"/>
		<path class="st2" d="M75,37.2c0,0-0.1,0.1-0.1,0.2c-0.6,1.3-0.6,2.9,0,2.8c0.6-0.1,1.4-1.9,1.1-3.2C75.8,36.1,75.3,36.7,75,37.2"
			/>
		<path class="st2" d="M74.1,36.7c0.4-0.1,1.4-2.2,1.3-3.3c-0.1-0.5-0.3-0.2-0.5,0c-0.1,0.1-0.3,0.4-0.4,0.8
			C74,35.4,73.8,36.8,74.1,36.7"/>
		<path class="st2" d="M88,69.4c-0.6-0.1-0.8-0.1-0.6,0.2c0.5,0.8,3.1,1.8,3.2,1.3c0-0.1-0.1-0.2-0.2-0.3
			C89.7,69.9,88.6,69.5,88,69.4"/>
		<path class="st2" d="M87.8,67.9c0-0.2-0.2-0.4-0.2-0.5c-0.7-0.8-1.7-1.1-2.2-1.2c-0.6,0-0.7,0.3-0.2,0.8
			C86.1,68.1,87.9,68.7,87.8,67.9"/>
		<path class="st2" d="M85,64.2c-0.1-0.2-0.1-0.3-0.2-0.5c-0.7-0.9-1.6-1.2-2-1.1c-0.7,0.2-0.4,1.2,0.7,1.9
			C84.4,65.2,85.2,65,85,64.2"/>
		<path class="st2" d="M81.4,61.1c0.7,0.2,1.2-0.4,0.6-1.6c-0.7-1-1.4-1.1-1.8-0.9C79.4,59.1,80.3,60.8,81.4,61.1"/>
		<path class="st2" d="M77.8,54.3c-0.6,0.9,0.3,2.8,1.2,2.6c0.5-0.1,0.9-0.9,0.3-2C78.7,54,78.1,53.9,77.8,54.3"/>
		<path class="st2" d="M76.7,52.7c0.5-0.2,0.8-1.2,0.3-2.5c-0.5-1-1-0.9-1.2-0.3C75.3,50.9,75.9,52.9,76.7,52.7"/>
		<path class="st2" d="M75,45.6c-0.4-0.9-0.7-0.4-0.9-0.1c0,0.1-0.1,0.2-0.1,0.3c-0.3,1.1,0,3,0.6,2.7C75.1,48.3,75.4,46.8,75,45.6"
			/>
		<path class="st2" d="M73.8,41.7c-0.2-0.5-0.3-0.3-0.4-0.1c-0.1,0.1-0.2,0.4-0.2,0.8c-0.2,1.2-0.1,2.7,0.2,2.5
			C73.6,44.8,74,42.8,73.8,41.7"/>
		<path class="st2" d="M81.8,65.2c-0.1-0.1-0.5-0.2-0.4,0c0.2,0.4,2.2,2.1,2.3,1.7c0-0.1-0.1-0.2-0.2-0.3
			C83,65.9,82.2,65.4,81.8,65.2"/>
		<path class="st2" d="M81.6,64.1c0-0.2-0.1-0.4-0.2-0.5c-0.5-0.7-1.2-1-1.5-1.1c-0.4-0.1-0.3,0.2,0.1,0.7
			C80.6,64.1,81.6,64.6,81.6,64.1"/>
		<path class="st2" d="M78,59.6c-0.4,0.3,0.3,1.6,1.1,1.8c0.4,0.1,0.6-0.2,0.2-1C78.7,59.6,78.2,59.4,78,59.6"/>
		<path class="st2" d="M76.2,56.4c-0.2,0.7,0.6,2.1,1,1.9c0.2-0.1,0.3-0.6-0.1-1.5C76.7,56.1,76.3,56.1,76.2,56.4"/>
		<path class="st2" d="M74.7,52.9c0,0.1,0,0.2,0,0.3c0,0.9,0.5,2.3,0.8,2.1c0.2-0.2,0.2-1.1-0.2-2C75,52.5,74.8,52.7,74.7,52.9"/>
		<path class="st2" d="M73.6,49.4c0,0.1-0.1,0.2,0,0.7c0.1,0.9,0.4,2.3,0.6,2.1c0.1-0.1,0.2-1.6-0.2-2.6
			C73.7,49.3,73.6,49.3,73.6,49.4"/>
	</g>
	<g>
		<path class="st2" d="M14,107.1V87.6h3.6v8.2h8.8v-8.2H30v19.5h-3.6v-8.3h-8.8v8.3H14z"/>
		<path class="st2" d="M31.9,100.3c0-4.1,2.5-7.1,7-7.1s7,3,7,7.1c0,4-2.5,7.1-7,7.1S31.9,104.3,31.9,100.3z M35.4,100.3
			c0,2.5,1.2,4.4,3.5,4.4c2.4,0,3.5-1.9,3.5-4.4s-1.2-4.5-3.5-4.5S35.4,97.8,35.4,100.3z"/>
		<path class="st2" d="M59.7,107.1h-3.2v-1.9h-0.1c-0.9,1.3-2.3,2.2-4.2,2.2c-2.8,0-4.7-1.9-4.7-4.7v-9.2h3.4v8.7
			c0,1.4,0.8,2.5,2.4,2.5c1.8,0,2.9-1.3,2.9-3v-8.2h3.4L59.7,107.1L59.7,107.1z"/>
		<path class="st2" d="M62.2,107.1V87.6h3.4v19.5H62.2z"/>
		<path class="st2" d="M68,87.6h3.6v3.1H68V87.6z M68.1,107.1V93.5h3.4v13.6H68.1z"/>
		<path class="st2" d="M74,87.6h3.4v7.7h0.1c0.9-1.3,2.3-2.1,4.1-2.1c2.8,0,4.6,1.9,4.6,4.6v9.3h-3.4v-8.7c0-1.4-0.8-2.5-2.4-2.5
			c-1.8,0-2.9,1.3-2.9,3v8.2H74V87.6z"/>
		<path class="st2" d="M96.3,107.1l-0.1-1.9h-0.1c-0.8,1.4-2.1,2.2-4,2.2c-2.6,0-4.3-1.7-4.3-4.1c0-1.7,0.8-2.9,2.6-3.5
			c1.4-0.5,3.5-0.6,5.7-0.7v-1c0-1.2-0.9-2.2-2.5-2.2c-1.5,0-2.3,0.7-2.7,1.8l-2.6-1.3c0.9-2.1,2.8-3.1,5.5-3.1
			c3.7,0,5.7,1.8,5.7,4.8v9.1L96.3,107.1C96.3,107.2,96.3,107.1,96.3,107.1z M96.1,101.9v-0.7c-0.8,0.1-2,0.1-2.9,0.3
			c-1.1,0.2-2,0.5-2,1.6c0,1,0.7,1.7,2,1.7C95,104.8,96.1,103.5,96.1,101.9z"/>
		<path class="st2" d="M101.9,93.5h3.2l0.1,1.9h0.1c0.8-1.4,2.3-2.2,4.2-2.2c2.9,0,4.7,1.9,4.7,4.7v9.2h-3.4v-8.7
			c0-1.4-0.8-2.5-2.4-2.5c-1.8,0-2.9,1.3-2.9,3v8.2h-3.4V93.5H101.9z"/>
		<path class="st2" d="M123.4,87.6h3.6v16.5h9.4v2.9h-13C123.4,107,123.4,87.6,123.4,87.6z"/>
		<path class="st2" d="M136.8,100.3c0-4.1,2.5-7.1,7-7.1s7,3,7,7.1c0,4-2.5,7.1-7,7.1S136.8,104.3,136.8,100.3z M140.3,100.3
			c0,2.5,1.2,4.4,3.5,4.4c2.4,0,3.5-1.9,3.5-4.4s-1.2-4.5-3.5-4.5C141.4,95.8,140.3,97.8,140.3,100.3z"/>
		<path class="st2" d="M157.2,101.3h-1.3v5.8h-3.4V87.6h3.4v11.2h1.4l3.3-5.3h4l-4.4,6.5l4.6,7.1h-4L157.2,101.3z"/>
		<path class="st2" d="M177,105c-1.2,1.4-3,2.3-5.5,2.3c-4.6,0-7-2.8-7-7.1c0-4.1,2.4-7.1,6.7-7.1c4.2,0,6.4,2.9,6.4,6.7
			c0,0.5,0,1.1-0.1,1.5H168c0.3,2.1,1.4,3.4,3.6,3.4c1.3,0,2.4-0.5,3.3-1.6L177,105z M174.1,99.1c-0.2-1.9-1-3.3-3-3.3
			s-3,1.3-3.2,3.3H174.1z"/>
		<path class="st2" d="M191.2,93.5l-5.6,14.5c-1.1,2.8-2.3,4-4.8,4c-0.8,0-1.4-0.1-1.9-0.3v-2.5c0.3,0.1,0.7,0.2,1.2,0.2
			c1.2,0,1.9-0.5,2.4-2l-5.3-13.9h3.6l3.4,10.1h0.1l3.4-10.1C187.7,93.5,191.2,93.5,191.2,93.5z"/>
	</g>
</g>
</svg>
