<?xml version="1.0" encoding="UTF-8"?>
<svg xmlns="http://www.w3.org/2000/svg" width="430" height="270" viewBox="0 0 430 270" role="img" aria-label="HL Intelligence loading">
  <rect width="430" height="270" fill="#F6F8FB"/>
  <rect x="0.5" y="0.5" width="429" height="269" fill="#FFFFFF" stroke="#D7DCE5"/>
  <rect x="22.5" y="22.5" width="385" height="225" fill="none" stroke="#E3E8EF"/>
  <rect x="36.5" y="36.5" width="357" height="197" fill="none" stroke="#F1F4F8"/>
  <g transform="translate(118 42) scale(0.52)">
    <style type="text/css">
	.st0{fill:#7E8597;}
	.st1{fill:#4F8BC9;}
	.st2{fill:#002855;}
</style>
<g>
	<g>
		<path class="st0" d="M38.6,22.2c0.7-0.1,1.5-0.6,1.8-0.8c0.1-0.1,0.4-0.3,0.2-0.3c-0.4-0.1-2.7,0.8-2.5,1.1
			C38.3,22.3,38.4,22.2,38.6,22.2"/>
		<g>
			<path class="st0" d="M43,41.6c-1,1.1-0.4,3,1.4,3c1.4-0.1,1.9-1.3,1.8-2C46.1,41.1,44.1,40.5,43,41.6"/>
			<path class="st0" d="M49.3,41.7c-1,1.1-0.4,2.9,1.4,3c1.5,0,2-1.1,2-1.9C52.6,41.1,50.4,40.4,49.3,41.7"/>
			<path class="st0" d="M55.9,41.8c-1.2,1-0.7,2.9,1.1,3.2c1.4,0.1,2.1-1,2.1-1.8C59,41.7,57.1,40.8,55.9,41.8"/>
			<path class="st0" d="M36.8,36.1c-1.1,1.1-0.6,3,1.2,2.9c1.4-0.2,1.9-1.4,1.8-2.1C39.7,35.4,37.9,34.9,36.8,36.1"/>
			<path class="st0" d="M44.3,38.6c1.5-0.1,2-1.3,1.9-2c-0.2-1.5-2.3-2.1-3.4-0.8C41.9,36.8,42.5,38.6,44.3,38.6"/>
			<path class="st0" d="M49.3,35.6c-1,1-0.3,2.8,1.5,3c1.5,0,2-1.1,1.9-1.9C52.6,35.1,50.4,34.5,49.3,35.6"/>
			<path class="st0" d="M55.8,35.9c-0.9,1-0.3,2.8,1.5,3c1.5,0.1,2-1,1.9-1.8C59,35.6,56.9,34.8,55.8,35.9"/>
			<path class="st0" d="M62,36.6c-0.8,0.9-0.2,2.8,1.4,3.1c1.3,0.2,1.7-0.9,1.6-1.7C64.8,36.5,63,35.6,62,36.6"/>
			<path class="st0" d="M28.1,32.1c-1.3,0.9-1.8,2.8-0.7,2.9c0.1,0,0.3,0,0.4,0c1-0.3,1.6-1.4,1.7-2.1C29.7,31.9,29,31.5,28.1,32.1"
				/>
			<path class="st0" d="M32.3,31.3c-1.3,0.9-1.4,2.5-0.2,2.7c0.2,0,0.3,0,0.5,0c1.2-0.3,1.8-1.3,1.9-2
				C34.6,30.9,33.4,30.5,32.3,31.3"/>
			<path class="st0" d="M37.3,30.7c-1.2,1-0.8,2.5,0.7,2.5c0.1,0,0.1,0,0.2,0c1.4-0.2,2-1.2,2-1.9C40.2,30.1,38.5,29.8,37.3,30.7"/>
			<path class="st0" d="M42.9,30.5c-0.8,0.9-0.4,2.3,1.4,2.3c1.4-0.1,2-1.1,1.9-1.8C46.1,29.7,44,29.3,42.9,30.5"/>
			<path class="st0" d="M50.7,32.8c1.5,0,1.9-1,1.8-1.6c-0.3-1.4-2.5-1.9-3.5-0.8C48.4,31.2,48.9,32.7,50.7,32.8"/>
			<path class="st0" d="M57.1,33.2c1.4,0.1,1.8-0.9,1.6-1.5c-0.4-1.4-2.6-2-3.4-1C54.7,31.5,55.4,33,57.1,33.2"/>
			<path class="st0" d="M64.2,32.5c-0.5-1.4-2.4-2.2-3-1.2c-0.5,0.8,0.4,2.3,1.8,2.6C64.3,34.1,64.5,33.2,64.2,32.5"/>
			<path class="st0" d="M66.2,32.2c-0.4,0.8,0.5,2.4,1.7,2.8c0.9,0.2,1-0.7,0.7-1.4C68.1,32.3,66.6,31.4,66.2,32.2"/>
			<path class="st0" d="M71.7,35c-0.5-1.3-1.5-2.2-1.7-1.7c-0.3,0.6,0.6,2.6,1.5,3.1C72.1,36.6,72,35.7,71.7,35"/>
			<path class="st0" d="M27.9,28.5c-0.8,0.1-2.8,2.6-2.2,2.8c0.1,0,0.2,0,0.3,0c0.6-0.5,1.4-1.4,1.7-2
				C28.1,28.8,28.1,28.4,27.9,28.5"/>
			<path class="st0" d="M30.8,27.4c-1.3,0.5-2.6,2.3-1.8,2.6c0.1,0,0.3,0,0.4,0c1-0.3,1.7-1.3,2-1.8C31.7,27.5,31.4,27.2,30.8,27.4"
				/>
			<path class="st0" d="M34.3,26.8c-1.3,0.7-1.9,2-0.9,2.2c0.2,0.1,0.3,0,0.5,0c1.1-0.2,1.8-1.1,2-1.6
				C36.1,26.5,35.3,26.2,34.3,26.8"/>
			<path class="st0" d="M38.4,26.4c-1,0.8-0.8,1.8,0.3,1.9c0.1,0,0.2,0,0.3,0c1.2-0.2,1.9-1,1.9-1.5C41,25.8,39.5,25.6,38.4,26.4"/>
			<path class="st0" d="M43.4,26.2c-0.6,0.7-0.3,1.8,1.3,1.8c1.2-0.1,1.8-0.9,1.7-1.4C46.3,25.4,44.3,25.2,43.4,26.2"/>
			<path class="st0" d="M50.5,28c1.3,0,1.7-0.8,1.5-1.3c-0.4-1.2-2.5-1.5-3.2-0.5C48.4,26.8,48.9,27.9,50.5,28"/>
			<path class="st0" d="M57.5,27.1c-0.6-1.2-2.7-1.7-3.2-0.7c-0.3,0.6,0.4,1.8,2,2C57.6,28.4,57.8,27.7,57.5,27.1"/>
			<path class="st0" d="M62.5,27.9c-0.7-1.2-2.5-1.8-2.8-1c-0.3,0.6,0.7,1.9,2,2.1C62.8,29.2,62.8,28.5,62.5,27.9"/>
			<path class="st0" d="M66.1,30c0.8,0.2,0.6-0.5,0.3-1l-0.1-0.1c-0.8-1.1-2.1-1.8-2.3-1.3C63.9,28.1,64.9,29.6,66.1,30"/>
			<path class="st0" d="M69.2,30.1c-0.7-1-1.7-1.8-1.8-1.5c-0.1,0.4,1.2,2.2,2.1,2.7c0.4,0.2,0.3-0.2,0.2-0.4S69.4,30.4,69.2,30.1"
				/>
			<path class="st0" d="M32.1,25.9c0.8-0.3,1.7-1,2.1-1.4c0.4-0.4,0.4-0.6,0.1-0.6c-0.9,0.1-3,1.7-2.6,2C31.8,26,32,25.9,32.1,25.9"
				/>
			<path class="st0" d="M35.4,25c0.2,0.1,0.4,0,0.5,0c1-0.2,1.7-0.9,2-1.3c0.3-0.5,0.1-0.7-0.6-0.6C36.1,23.5,34.7,24.8,35.4,25"/>
			<path class="st0" d="M40.2,23.1c-0.9,0.5-1.2,1.2-0.4,1.4c0.2,0,0.3,0,0.5,0c1.1-0.1,1.7-0.7,1.8-1.1
				C42.3,22.7,41.3,22.5,40.2,23.1"/>
			<path class="st0" d="M44,23c-0.5,0.5-0.2,1.2,1,1.2c1.1-0.1,1.6-0.7,1.5-1C46.5,22.3,44.8,22.2,44,23"/>
			<path class="st0" d="M50,24.2c1,0,1.4-0.5,1.2-1c-0.4-0.9-2.4-1.1-2.7-0.2C48.3,23.4,48.8,24.1,50,24.2"/>
			<path class="st0" d="M55.8,23.6c-0.6-0.8-2.6-1.3-2.7-0.5c-0.1,0.4,0.6,1.2,1.9,1.4C56,24.5,56.2,24.1,55.8,23.6"/>
			<path class="st0" d="M59.6,25.1c0.9,0.1,0.7-0.4,0.5-0.7c-0.1-0.1-0.1-0.1-0.2-0.2c-0.8-0.8-2.4-1.4-2.5-0.8
				C57.4,23.9,58.4,24.8,59.6,25.1"/>
			<path class="st0" d="M63.4,25.9c0.5,0.1,0.4-0.1,0.3-0.3c-0.1-0.1-0.2-0.3-0.5-0.6c-0.9-0.7-2.1-1.3-2.2-1
				C60.9,24.3,62.4,25.6,63.4,25.9"/>
			<path class="st0" d="M41.9,21.8c0.8-0.1,1.4-0.5,1.6-0.7c0.2-0.3,0-0.4-0.6-0.3c-1,0.2-1.9,0.7-1.5,0.9
				C41.6,21.8,41.8,21.8,41.9,21.8"/>
			<path class="st0" d="M44.9,21c-0.3,0.2-0.1,0.6,0.7,0.6c0.9,0,1.2-0.4,1.2-0.6C46.8,20.5,45.4,20.5,44.9,21"/>
			<path class="st0" d="M50.3,21c-0.5-0.5-2-0.6-2-0.1c0,0.2,0.4,0.6,1.2,0.6C50.3,21.6,50.5,21.2,50.3,21"/>
			<path class="st0" d="M53.3,21.8c0.7,0.1,0.7-0.2,0.5-0.4c0,0-0.1-0.1-0.2-0.2c-0.7-0.4-2.1-0.7-2.1-0.3
				C51.6,21.2,52.4,21.7,53.3,21.8"/>
			<path class="st0" d="M56.8,22.2c0.4,0.1,0.4,0,0.3-0.1c0,0-0.2-0.2-0.6-0.4c-0.7-0.4-2.1-0.8-2-0.6C54.7,21.4,55.8,22,56.8,22.2"
				/>
		</g>
	</g>
	<g>
		<path class="st1" d="M53.6,50.6c1.4,0.6,2.9-0.8,2.5-2.3c-0.4-1.4-2.4-1.8-3.4-0.3C52.2,49.3,52.9,50.3,53.6,50.6"/>
		<path class="st1" d="M50.3,56.2c1.5,0.7,3.1-0.8,2.6-2.4c-0.4-1.4-2.3-1.8-3.3-0.3C49,54.7,49.6,55.8,50.3,56.2"/>
		<path class="st1" d="M46.7,61.4c1.3,0.7,3-0.5,2.8-2c-0.3-1.5-2.2-2.1-3.3-0.7C45.5,59.9,46.1,61,46.7,61.4"/>
		<path class="st1" d="M61.9,47.9c1.3,0.6,2.6-0.8,2.2-2.3s-2.3-2-3.1-0.4C60.4,46.6,61.2,47.6,61.9,47.9"/>
		<path class="st1" d="M58.9,53.6c1.4,0.6,2.9-1,2.4-2.5c-0.5-1.4-2.3-1.7-3.2-0.1C57.5,52.3,58.2,53.3,58.9,53.6"/>
		<path class="st1" d="M54.9,56.6c-0.7,1.3,0,2.3,0.7,2.7c1.4,0.6,3.1-1,2.6-2.5C57.8,55.4,55.9,55.1,54.9,56.6"/>
		<path class="st1" d="M51.9,64.6c1.4,0.6,3.2-0.9,2.8-2.3c-0.4-1.3-2.3-1.6-3.4-0.2C50.5,63.3,51.1,64.3,51.9,64.6"/>
		<path class="st1" d="M47.5,66.9c-0.8,1-0.1,1.9,0.7,2.2c1.5,0.6,3.2-0.5,2.7-1.8C50.6,66.2,48.6,65.8,47.5,66.9"/>
		<path class="st1" d="M70.4,40.9c0.8,0.7,1.4,0.2,1.4-0.8c-0.1-1.6-1.5-2.9-2.2-2.1c-0.1,0.1-0.1,0.2-0.2,0.3
			C69.3,39.4,69.9,40.5,70.4,40.9"/>
		<path class="st1" d="M68.7,45.7c0.9,0.6,1.8-0.2,1.7-1.5c-0.2-1.5-1.5-2.4-2.2-1.5C68.1,42.8,68,43,68,43.1
			C67.6,44.3,68.2,45.3,68.7,45.7"/>
		<path class="st1" d="M66.4,51c1.1,0.6,2.2-0.7,2-2.1c-0.3-1.5-1.8-1.9-2.5-0.7c0,0-0.1,0.1-0.1,0.2C65.3,49.6,65.8,50.6,66.4,51"
			/>
		<path class="st1" d="M63,53.8c-0.6,1.3-0.1,2.3,0.6,2.5c1.3,0.6,2.7-1.1,2.2-2.6C65.4,52.7,63.9,52.3,63,53.8"/>
		<path class="st1" d="M60.4,61.8c1.3,0.5,2.9-1.2,2.4-2.6c-0.4-1-1.9-1.3-2.9,0.2C59.1,60.7,59.7,61.6,60.4,61.8"/>
		<path class="st1" d="M56.9,66.9c1.4,0.3,3.1-1.3,2.6-2.5c-0.4-0.9-2-1.1-3.1,0.3C55.6,65.9,56.2,66.7,56.9,66.9"/>
		<path class="st1" d="M53.4,71.3c1.5,0.3,3.1-1,2.5-2c-0.5-0.8-2.2-0.8-3.2,0.3C52,70.5,52.7,71.1,53.4,71.3"/>
		<path class="st1" d="M52.7,73.1c-0.5-0.7-2.3-0.8-3.3,0c-0.7,0.7,0.1,1.2,0.8,1.3C51.7,74.7,53.2,73.9,52.7,73.1"/>
		<path class="st1" d="M46.5,75.6c-0.5,0.4,0.3,0.8,1.1,0.9c1.3,0.2,2.7-0.2,2.3-0.6C49.5,75.3,47.4,75.1,46.5,75.6"/>
		<path class="st1" d="M75.1,41.7c0.3-0.7-0.9-3.6-1.3-3.3c-0.1,0.1-0.1,0.2-0.1,0.3c0,0.8,0.4,2,0.7,2.5C74.7,41.7,75,42,75.1,41.7
			"/>
		<path class="st1" d="M74.5,44.8c0.2-1.4-0.7-3.4-1.3-2.8c-0.1,0.1-0.1,0.2-0.2,0.4c-0.2,1,0.2,2.1,0.5,2.6
			C74,45.5,74.4,45.5,74.5,44.8"/>
		<path class="st1" d="M72,49.2c0.6,0.6,1.3,0.1,1.3-1.1c0.1-1.5-0.8-2.6-1.5-1.9c-0.1,0.1-0.2,0.3-0.3,0.4
			C71.3,47.7,71.6,48.8,72,49.2"/>
		<path class="st1" d="M70,53.9c0.8,0.6,1.8-0.6,1.6-2c-0.2-1.3-1.2-1.7-1.8-0.7c-0.1,0.1-0.1,0.2-0.2,0.3
			C69.1,52.6,69.5,53.6,70,53.9"/>
		<path class="st1" d="M69.3,56.3c-0.3-0.9-1.4-1.1-2.2,0.2c-0.6,1.2-0.2,2,0.3,2.3C68.5,59.2,69.7,57.6,69.3,56.3"/>
		<path class="st1" d="M64.2,61.6c-0.7,1.2-0.2,1.9,0.4,2c1.2,0.3,2.5-1.4,2.1-2.5C66.3,60.3,65.1,60.3,64.2,61.6"/>
		<path class="st1" d="M61.4,68.2c1.3,0.1,2.8-1.5,2.2-2.4c-0.4-0.6-1.7-0.5-2.7,0.7C60.3,67.6,60.8,68.1,61.4,68.2"/>
		<path class="st1" d="M60.6,70.1c-0.4-0.6-2-0.3-2.9,0.7c-0.7,0.9,0,1.3,0.6,1.2C59.6,72,61.1,70.8,60.6,70.1"/>
		<path class="st1" d="M54.6,74.2C54,74.8,54.7,75,55.3,75c0,0,0.1,0,0.2,0c1.3-0.1,2.7-0.9,2.3-1.4C57.4,73.2,55.5,73.3,54.6,74.2"
			/>
		<path class="st1" d="M51.9,76.4c-0.3,0.3,0,0.4,0.2,0.4s0.4,0,0.9,0c1.2-0.1,2.5-0.6,2.2-0.8C55,75.7,52.8,75.9,51.9,76.4"/>
		<path class="st1" d="M75.4,46.4c-0.1,0-0.1,0.2-0.2,0.3c-0.2,0.8,0,1.9,0.2,2.5c0.2,0.5,0.3,0.7,0.5,0.4
			C76.2,48.8,75.8,46.1,75.4,46.4"/>
		<path class="st1" d="M74.3,50c-0.1,0.1-0.2,0.3-0.3,0.4c-0.3,1-0.1,2,0.1,2.4c0.3,0.5,0.6,0.4,0.8-0.2
			C75.2,51.3,74.8,49.5,74.3,50"/>
		<path class="st1" d="M72.6,54c-0.1,0.1-0.2,0.3-0.3,0.4c-0.4,1-0.2,1.8,0.1,2.1c0.5,0.5,1.2-0.3,1.2-1.5
			C73.6,54.1,73.1,53.5,72.6,54"/>
		<path class="st1" d="M70.2,58.8c-0.5,1-0.2,1.7,0.1,1.9c0.7,0.4,1.7-1.1,1.4-2.1C71.5,57.9,70.8,57.7,70.2,58.8"/>
		<path class="st1" d="M67.9,64.6c1,0.1,2.1-1.5,1.6-2.3c-0.3-0.4-1.1-0.3-1.8,0.7C67.2,64,67.4,64.6,67.9,64.6"/>
		<path class="st1" d="M67.1,66.3c-0.3-0.3-1.4-0.1-2.1,1c-0.6,0.8-0.2,1.3,0.4,1.2C66.3,68.3,67.7,66.8,67.1,66.3"/>
		<path class="st1" d="M62.1,71c-0.6,0.7,0,0.8,0.3,0.7c0.1,0,0.2,0,0.3-0.1c1-0.3,2.4-1.4,1.9-1.8C64.3,69.6,62.9,70.1,62.1,71"/>
		<path class="st1" d="M59.5,73.8c-0.4,0.4-0.1,0.4,0.1,0.4c0.1,0,0.4,0,0.7-0.2c1.1-0.4,2.2-1.2,2-1.4
			C62.1,72.5,60.3,73.1,59.5,73.8"/>
		<path class="st1" d="M75.3,53.8c-0.1,0-0.2,0.2-0.2,0.3c-0.3,0.7-0.3,1.6-0.2,2c0,0.2,0,0.5,0.2,0.4
			C75.3,56.2,75.7,53.7,75.3,53.8"/>
		<path class="st1" d="M74.1,56.9c-0.1,0.1-0.2,0.3-0.3,0.4c-0.3,0.7-0.3,1.5-0.2,1.7c0.1,0.3,0.3,0.2,0.5-0.4
			C74.5,57.7,74.5,56.6,74.1,56.9"/>
		<path class="st1" d="M72.2,60.6c-0.4,0.8-0.3,1.3-0.1,1.4c0.4,0.2,1.1-1,1-1.7C73,59.9,72.6,59.8,72.2,60.6"/>
		<path class="st1" d="M70.3,63.9c-0.4,0.7-0.2,1,0.1,1c0.7-0.1,1.5-1.5,1.1-1.7C71.2,63,70.7,63.2,70.3,63.9"/>
		<path class="st1" d="M68.2,67.1c-0.4,0.6-0.2,0.7,0,0.7c0.1,0,0.2-0.1,0.2-0.1c0.7-0.4,1.7-1.5,1.3-1.6
			C69.5,66,68.7,66.4,68.2,67.1"/>
		<path class="st1" d="M66,70c-0.3,0.3-0.2,0.4,0,0.4c0.1,0,0.2-0.1,0.6-0.3c0.7-0.5,1.7-1.4,1.5-1.5C67.8,68.5,66.7,69.2,66,70"/>
	</g>
	<g>
		<path class="st2" d="M38.4,45c1.3-0.2,1.7-1.4,1.6-2.1c-0.3-1.5-2.2-2-3.1-0.8C35.9,43.2,36.7,45.1,38.4,45"/>
		<path class="st2" d="M43.9,56.4c1.5,0.4,2.8-1.2,1.9-2.8c-0.8-1.2-2.1-1-2.7-0.6C41.9,54,42.3,56,43.9,56.4"/>
		<path class="st2" d="M40.8,50.9c1.4,0.3,2.7-1.1,1.9-2.7c-0.8-1.2-2-1.2-2.7-0.8C38.6,48.4,39.1,50.6,40.8,50.9"/>
		<path class="st2" d="M44.1,62.1c-0.9-1.1-2.1-1-2.8-0.5c-1.2,0.8-0.7,2.7,0.9,3.1C43.7,65,45.1,63.6,44.1,62.1"/>
		<path class="st2" d="M38.9,59.5c1.4,0.3,2.6-1.1,1.7-2.7c-0.8-1.2-2.1-1.1-2.7-0.7C36.6,57.1,37.3,59.2,38.9,59.5"/>
		<path class="st2" d="M35.6,53.9c1.4,0.3,2.6-1.2,1.8-2.8c-0.8-1.3-2-1.2-2.6-0.7C33.5,51.3,34,53.6,35.6,53.9"/>
		<path class="st2" d="M32.5,48.1c1.3,0.3,2.5-1.2,1.9-2.8c-0.7-1.3-1.9-1.2-2.5-0.7C30.7,45.5,31.1,47.8,32.5,48.1"/>
		<path class="st2" d="M30,42.4c1.2,0.2,2.5-1.2,2-2.8c-0.5-1.2-1.6-1-2.3-0.5C28.6,40,28.7,42.1,30,42.4"/>
		<path class="st2" d="M45.8,73c-0.8-0.7-2-0.7-2.7-0.5c-0.9,0.3-0.9,1.1,0,1.6c1.4,0.7,3.3,0.1,2.9-0.8C46,73.1,45.9,73,45.8,73"/>
		<path class="st2" d="M40.3,70.8c1.4,0.6,2.9-0.1,2.4-1.2c-0.1-0.2-0.2-0.3-0.2-0.4c-0.8-0.9-2.1-0.9-2.7-0.7
			C38.8,69.1,39,70.3,40.3,70.8"/>
		<path class="st2" d="M37.3,66.8c1.4,0.5,2.5-0.6,1.8-1.9c0,0-0.1-0.1-0.1-0.2c-0.8-1.1-2-1.1-2.6-0.8
			C35.4,64.6,35.9,66.2,37.3,66.8"/>
		<path class="st2" d="M35.6,59.6c-0.8-1.2-1.9-1.2-2.5-0.8c-1.1,0.8-0.4,2.9,1.2,3.2C35.4,62.2,36.5,61.1,35.6,59.6"/>
		<path class="st2" d="M32.4,54.1c-0.8-1.3-1.8-1.2-2.3-0.7c-1.1,0.9-0.4,3.1,1.1,3.4C32.2,56.9,33.2,55.7,32.4,54.1"/>
		<path class="st2" d="M28.3,51.2c1,0.1,1.9-1.2,1.3-2.9c-0.7-1.3-1.6-1.1-2.1-0.6C26.4,48.8,27,51.1,28.3,51.2"/>
		<path class="st2" d="M25.9,45.7c0.9,0,1.8-1.5,1.4-2.9c-0.5-1.1-1.4-0.9-1.9-0.3C24.4,43.7,24.7,45.7,25.9,45.7"/>
		<path class="st2" d="M24.2,38.2c-0.9,1.1-1,2.9,0,2.8c0.8-0.1,1.9-1.6,1.6-2.9C25.5,37.2,24.7,37.6,24.2,38.2"/>
		<path class="st2" d="M23.2,37.2c0.6,0,2-1.8,1.9-2.8c-0.1-0.7-0.8-0.1-1.3,0.5C23,35.9,22.6,37.2,23.2,37.2"/>
		<path class="st2" d="M43.4,76.4c-0.7-0.4-1.9-0.6-2.5-0.6s-1,0.1-0.8,0.3c0.5,0.6,3.6,1.1,3.5,0.5C43.6,76.6,43.5,76.5,43.4,76.4"
			/>
		<path class="st2" d="M40.9,74.4c0-0.1-0.1-0.2-0.2-0.3c-0.8-0.7-1.9-0.9-2.5-0.8c-0.7,0.1-0.9,0.4-0.4,0.9
			C38.8,75,41.1,75.2,40.9,74.4"/>
		<path class="st2" d="M37.8,71.1c-0.1-0.2-0.1-0.3-0.3-0.5c-0.8-0.8-1.9-1-2.4-0.9c-0.9,0.2-0.7,1,0.3,1.7
			C36.7,72.2,38.1,72,37.8,71.1"/>
		<path class="st2" d="M33.1,68c1.2,0.5,2-0.2,1.5-1.2c0-0.1-0.1-0.2-0.2-0.3c-0.8-1-1.8-1.1-2.3-0.9C31.2,66,31.7,67.4,33.1,68"/>
		<path class="st2" d="M29.2,61c-0.9,0.6-0.1,2.5,1.2,2.8c0.9,0.2,1.7-0.6,0.9-2C30.6,60.7,29.6,60.7,29.2,61"/>
		<path class="st2" d="M28.4,56.7c-0.7-1.1-1.6-1.1-1.9-0.7c-0.8,0.9-0.1,2.9,1.1,3C28.4,59.2,29.1,58.2,28.4,56.7"/>
		<path class="st2" d="M24.1,51c-0.7,1.1-0.1,3.2,1,3.1c0.7,0,1.3-1.2,0.7-2.7C25.2,50.3,24.4,50.5,24.1,51"/>
		<path class="st2" d="M22.8,49.3c0.7-0.1,1.3-1.6,0.8-2.9c-0.4-1-1.1-0.7-1.4-0.1C21.6,47.6,22,49.4,22.8,49.3"/>
		<path class="st2" d="M21.3,42.3l-0.1,0.1c-0.6,1.2-0.5,2.8,0,2.7s1.3-1.8,1.1-3C22.1,41.3,21.5,41.8,21.3,42.3"/>
		<path class="st2" d="M20.4,41.8c0.4-0.1,1.3-2.1,1.3-3.1c-0.1-0.4-0.3-0.2-0.4,0c-0.1,0.1-0.2,0.4-0.4,0.8
			C20.3,40.6,20.1,41.9,20.4,41.8"/>
		<path class="st2" d="M33.5,72.6c-0.5-0.1-0.8,0-0.6,0.2c0.5,0.7,3,1.7,3,1.2c0-0.1-0.1-0.2-0.2-0.3C35.1,73.2,34.1,72.8,33.5,72.6
			"/>
		<path class="st2" d="M33.4,71.3c0-0.2-0.2-0.3-0.2-0.4c-0.7-0.8-1.6-1.1-2.1-1.1c-0.6,0-0.7,0.3-0.2,0.8
			C31.7,71.5,33.5,72,33.4,71.3"/>
		<path class="st2" d="M30.7,67.8c-0.1-0.2-0.1-0.3-0.2-0.4c-0.6-0.8-1.5-1.1-1.9-1c-0.7,0.2-0.3,1.1,0.7,1.8
			C30.1,68.7,30.9,68.5,30.7,67.8"/>
		<path class="st2" d="M27.3,64.8c0.6,0.2,1.2-0.4,0.5-1.5c-0.6-0.9-1.4-1-1.7-0.8C25.5,63,26.2,64.6,27.3,64.8"/>
		<path class="st2" d="M23.9,58.4c-0.6,0.8,0.3,2.6,1.2,2.5c0.5-0.1,0.8-0.8,0.3-1.9C24.8,58.1,24.2,58,23.9,58.4"/>
		<path class="st2" d="M22.8,56.9c0.4-0.1,0.7-1.2,0.2-2.3c-0.4-0.9-1-0.8-1.2-0.3C21.5,55.2,22.1,57.2,22.8,56.9"/>
		<path class="st2" d="M21.3,50.2c-0.3-0.8-0.7-0.4-0.8-0.1c-0.1,0.2-0.1,0.3-0.1,0.3c-0.3,1.1,0,2.8,0.6,2.5
			C21.4,52.8,21.7,51.4,21.3,50.2"/>
		<path class="st2" d="M20.1,46.6c-0.1-0.5-0.3-0.3-0.4-0.1c-0.1,0.1-0.1,0.3-0.2,0.7c-0.2,1.1-0.1,2.5,0.2,2.4
			C20,49.5,20.4,47.6,20.1,46.6"/>
		<path class="st2" d="M27.7,68.7c-0.1-0.1-0.4-0.2-0.4,0c0.1,0.4,2.1,2,2.2,1.6c0-0.1-0.1-0.2-0.2-0.3
			C28.8,69.4,28.1,68.9,27.7,68.7"/>
		<path class="st2" d="M27.5,67.7c0-0.2-0.1-0.3-0.2-0.4c-0.5-0.6-1.1-1-1.4-1s-0.3,0.2,0,0.7C26.6,67.7,27.5,68.1,27.5,67.7"/>
		<path class="st2" d="M24.1,63.4c-0.4,0.3,0.3,1.5,1,1.7c0.4,0.1,0.6-0.2,0.2-0.9C24.8,63.4,24.3,63.3,24.1,63.4"/>
		<path class="st2" d="M22.4,60.4c-0.2,0.6,0.5,2,1,1.8c0.2-0.1,0.3-0.6-0.1-1.4C22.9,60.1,22.5,60.1,22.4,60.4"/>
		<path class="st2" d="M21,57.1c0,0.1,0,0.2,0,0.3c0,0.8,0.5,2.2,0.8,1.9c0.2-0.2,0.2-1-0.1-1.9C21.3,56.7,21.1,56.9,21,57.1"/>
		<path class="st2" d="M19.9,53.9c0,0.1-0.1,0.2,0,0.7c0.1,0.8,0.4,2.2,0.5,2c0.1-0.1,0.1-1.5-0.2-2.5C20.1,53.7,20,53.7,19.9,53.9"
			/>
	</g>
	<g>
		<path class="st2" d="M96.4,62.9V34.6h5.2v11.9h12.8V34.6h5.2v28.3h-5.2V50.8h-12.7v12.1H96.4z"/>
		<path class="st2" d="M122.5,53c0-5.9,3.6-10.3,10.2-10.3c6.6,0,10.2,4.4,10.2,10.3s-3.6,10.3-10.2,10.3
			C126,63.3,122.5,58.9,122.5,53z M127.5,53c0,3.6,1.7,6.4,5.1,6.4c3.4,0,5.1-2.8,5.1-6.4c0-3.7-1.7-6.5-5.1-6.5
			C129.2,46.6,127.5,49.4,127.5,53z"/>
		<path class="st2" d="M162.8,62.9h-4.7l-0.1-2.8h-0.1c-1.3,1.9-3.4,3.2-6,3.2c-4.1,0-6.8-2.7-6.8-6.8V43.1h5v12.6
			c0,2.1,1.1,3.7,3.5,3.7c2.6,0,4.3-1.8,4.3-4.3v-12h5L162.8,62.9L162.8,62.9z"/>
		<path class="st2" d="M166.4,62.9V34.6h5v28.3C171.4,62.9,166.4,62.9,166.4,62.9z"/>
		<path class="st2" d="M174.8,34.6h5.2v4.5h-5.2V34.6z M175,62.9V43.1h5v19.8C180,62.9,175,62.9,175,62.9z"/>
		<path class="st2" d="M183.5,34.6h5v11.2h0.1c1.3-2,3.3-3.1,6-3.1c4.1,0,6.7,2.7,6.7,6.7v13.4h-5V50.3c0-2-1.2-3.6-3.5-3.6
			c-2.6,0-4.3,1.9-4.3,4.4V63h-5V34.6z"/>
		<path class="st2" d="M215.9,62.9l-0.1-2.8h-0.1c-1.1,2-3.1,3.2-5.8,3.2c-3.8,0-6.3-2.5-6.3-6c0-2.4,1.2-4.3,3.8-5.2
			c2-0.7,5.1-0.9,8.2-1v-1.5c0-1.8-1.3-3.1-3.6-3.1c-2.1,0-3.4,1.1-4,2.6l-3.8-1.9c1.3-3,4-4.6,8-4.6c5.3,0,8.3,2.6,8.3,7v13.2
			L215.9,62.9L215.9,62.9z M215.6,55.4v-1.1c-1.2,0.1-2.8,0.2-4.2,0.4c-1.6,0.2-2.9,0.8-2.9,2.4c0,1.4,1.1,2.5,2.9,2.5
			C214,59.6,215.6,57.7,215.6,55.4z"/>
		<path class="st2" d="M224.1,43.1h4.7l0.1,2.8h0.1c1.2-2,3.3-3.2,6-3.2c4.2,0,6.8,2.7,6.8,6.8v13.4h-5V50.3c0-2-1.2-3.6-3.5-3.6
			c-2.6,0-4.3,1.9-4.3,4.4V63h-5L224.1,43.1L224.1,43.1z"/>
		<path class="st2" d="M255.2,34.6h5.2v24h13.7v4.3h-18.9L255.2,34.6L255.2,34.6z"/>
		<path class="st2" d="M274.7,53c0-5.9,3.6-10.3,10.2-10.3s10.2,4.4,10.2,10.3s-3.6,10.3-10.2,10.3C278.2,63.3,274.7,58.9,274.7,53z
			 M279.7,53c0,3.6,1.7,6.4,5.1,6.4s5.1-2.8,5.1-6.4c0-3.7-1.7-6.5-5.1-6.5C281.4,46.6,279.7,49.4,279.7,53z"/>
		<path class="st2" d="M304.3,54.4h-1.9v8.5h-5V34.6h5v16.2h2l4.8-7.7h5.7l-6.3,9.5l6.7,10.3h-5.9L304.3,54.4z"/>
		<path class="st2" d="M333,59.9c-1.8,2.1-4.3,3.4-8,3.4c-6.7,0-10.2-4.1-10.2-10.3c0-6,3.5-10.3,9.7-10.3c6.1,0,9.2,4.2,9.2,9.7
			c0,0.7,0,1.7-0.1,2.2h-13.7c0.4,3,2,4.9,5.3,4.9c1.9,0,3.5-0.8,4.7-2.4L333,59.9z M328.8,51.3c-0.2-2.8-1.4-4.7-4.3-4.7
			s-4.3,1.9-4.6,4.7H328.8z"/>
		<path class="st2" d="M353.6,43.1l-8.1,21.1c-1.5,4-3.4,5.8-7,5.8c-1.2,0-2.1-0.2-2.7-0.4V66c0.5,0.1,1,0.2,1.7,0.2
			c1.8,0,2.8-0.7,3.5-2.9l-7.7-20.2h5.3l5,14.6h0.1l5-14.6C348.7,43.1,353.6,43.1,353.6,43.1z"/>
	</g>
</g>
  </g>
  <text x="215" y="143"
    text-anchor="middle"
    font-family="Arial, Helvetica, sans-serif"
    font-size="19"
    font-weight="700"
    letter-spacing="0"
    fill="#002855">HL Intelligence</text>
  <text x="215" y="171"
    text-anchor="middle"
    font-family="Arial, Helvetica, sans-serif"
    font-size="13"
    font-weight="500"
    letter-spacing="0"
    fill="#525766">Secure document preparation</text>
  <rect x="104" y="232" width="222" height="3" fill="#E6EBF2"/>
  <rect x="104" y="232" width="96" height="3" fill="#0067A5"/>
</svg>